<svg xmlns="http://www.w3.org/2000/svg" viewBox="0 0 1252.49 470.99"><defs><style>.cls-1{fill:#fff;}.cls-2{fill:#49bcbd;}.cls-3{fill:#ffc846;}.cls-4{fill:#eeaa24;}.cls-5{fill:#8ddbd3;}.cls-6{fill:#fafafa;}.cls-7{fill:#222;}</style></defs><g id="Layer_2" data-name="Layer 2"><g id="テキスト"><path class="cls-1" d="M0,150C0,67.5,65.39,0,145.31,0S290.62,67.5,290.62,150V321c0,82.5-65.39,150-145.31,150S0,403.49,0,321Z"/><path class="cls-1" d="M320.62,150C320.62,67.5,386,0,465.93,0S611.24,67.5,611.24,150V321c0,82.5-65.39,150-145.31,150s-145.31-67.5-145.31-150Z"/><path class="cls-1" d="M641.24,150c0-82.5,65.39-150,145.31-150S931.87,67.5,931.87,150V321c0,82.5-65.39,150-145.32,150s-145.31-67.5-145.31-150Z"/><path class="cls-1" d="M961.87,150c0-82.5,65.39-150,145.31-150s145.31,67.5,145.31,150V298.39c0,82.5-65.39,150-145.31,150s-145.31-67.5-145.31-150Z"/><circle class="cls-2" cx="145.31" cy="150.21" r="106.16"/><circle class="cls-3" cx="465.93" cy="312.89" r="106.16"/><circle class="cls-4" cx="786.55" cy="150.21" r="106.16"/><circle class="cls-5" cx="1107.18" cy="312.89" r="106.16"/><path class="cls-6" d="M84.82,99.64h5.43v23.59H84.82v-9.42H76.18v9.42H70.79V99.64h5.39v9.59h8.64Z"/><path class="cls-6" d="M110.09,123.23l-1.44-4.83h-8.26L99,123.23H93.32l7.88-23.59H108l7.87,23.59Zm-8.4-9.17h5.67l-.25-.84c-.67-2.29-1.23-4.24-1.66-5.85s-.69-2.64-.79-3.11l-.14-.7a97.83,97.83,0,0,1-2.59,9.66Z"/><path class="cls-6" d="M118.94,99.64h8.12a9.11,9.11,0,0,1,6.36,2.2,7.24,7.24,0,0,1,2.43,5.6,7.44,7.44,0,0,1-2.54,6,9.34,9.34,0,0,1-6.25,2.14h-2.73v7.63h-5.39Zm5.39,11.69h1.79q4.27,0,4.27-3.89,0-3.5-4-3.5h-2.1Z"/><path class="cls-6" d="M138.65,99.64h8.12a9.09,9.09,0,0,1,6.35,2.2,7.24,7.24,0,0,1,2.43,5.6,7.43,7.43,0,0,1-2.53,6,9.37,9.37,0,0,1-6.25,2.14H144v7.63h-5.39ZM144,111.33h1.78q4.27,0,4.27-3.89,0-3.5-4-3.5H144Z"/><path class="cls-6" d="M178.13,99.64,170,114.55v8.68h-5.39v-8.65l-8.05-14.94h6.3l1.44,3.43q1.11,2.66,1.85,4.55l.95,2.45.17.56a57,57,0,0,1,3.08-7.56l1.54-3.43Z"/><path class="cls-6" d="M93,168.16a35.37,35.37,0,0,1-4.69-3.61,10.39,10.39,0,0,1-7.77,3.53c-4.66,0-8-2.66-8-6.89,0-3.5,2.77-5.57,5.71-7.42A11.55,11.55,0,0,1,76,147.64c0-3.64,2.38-5.95,5.7-5.95a4.68,4.68,0,0,1,5,4.87c0,3.5-2.94,5.6-5.91,7.56a64.63,64.63,0,0,0,7.49,7.7,16.58,16.58,0,0,0,3.39-7.6h2A21.29,21.29,0,0,1,89.62,163,42.19,42.19,0,0,0,94,166.41Zm-6.06-4.84a66.51,66.51,0,0,1-7.77-8.19c-2.52,1.68-4.69,3.4-4.69,6,0,3.29,2.52,5.25,6.2,5.25A8.74,8.74,0,0,0,86.92,163.32Zm-7.14-10.53c2.7-1.68,5.11-3.4,5.11-6.13a3.19,3.19,0,0,0-3.18-3.36c-2.38,0-4,1.72-4,4.24A9.66,9.66,0,0,0,79.78,152.79Z"/><path class="cls-6" d="M76.21,204.92h9.24v4.31H70.79V185.64H85.31v4.3h-9.1v5.36h8.12v4.27H76.21Z"/><path class="cls-6" d="M89.83,209.23V185.64h5.91l5.49,9.76c.78,1.38,1.45,2.67,2,3.87a25.84,25.84,0,0,1,1.1,2.54l.28.77a57.44,57.44,0,0,1-.35-7.18v-9.76h5.39v23.59h-5.91l-5.64-9.77q-1.12-1.89-2-3.72c-.57-1.23-1-2.13-1.17-2.72l-.28-.87a44.92,44.92,0,0,1,.53,7.31v9.77Z"/><path class="cls-6" d="M113,208.56V203.8a5.05,5.05,0,0,0,2.7.81c1.66,0,2.49-.89,2.49-2.66V185.67h5.38v16.42a7.35,7.35,0,0,1-1.8,5.28,6.6,6.6,0,0,1-5,1.89A8.16,8.16,0,0,1,113,208.56Z"/><path class="cls-6" d="M127.06,197.36a12.29,12.29,0,0,1,3.14-8.76,12.12,12.12,0,0,1,16.71,0,13.9,13.9,0,0,1,0,17.55,12.15,12.15,0,0,1-16.71,0A12.34,12.34,0,0,1,127.06,197.36Zm7.32-5.26a9.77,9.77,0,0,0,0,10.53,5.44,5.44,0,0,0,8.33,0,9.77,9.77,0,0,0,0-10.53,5.42,5.42,0,0,0-8.33,0Z"/><path class="cls-6" d="M173.47,185.64l-8.15,14.91v8.68h-5.39v-8.65l-8.05-14.94h6.3l1.43,3.43q1.13,2.66,1.86,4.55c.49,1.26.8,2.08.94,2.45l.18.56a55.54,55.54,0,0,1,3.08-7.56l1.54-3.43Z"/><path class="cls-6" d="M402,262.32v4.34h-5.74v19.25h-5.43V266.66h-5.77v-4.34Z"/><path class="cls-6" d="M419.35,262.32h5.42v23.59h-5.42v-9.42H410.7v9.42h-5.39V262.32h5.39v9.59h8.65Z"/><path class="cls-6" d="M444.62,285.91l-1.44-4.83h-8.26l-1.43,4.83h-5.64l7.88-23.59h6.79l7.87,23.59Zm-8.4-9.17h5.67l-.25-.84c-.67-2.29-1.23-4.24-1.66-5.85s-.69-2.64-.79-3.11l-.14-.7a97.83,97.83,0,0,1-2.59,9.66Z"/><path class="cls-6" d="M453.47,285.91V262.32h5.92l5.49,9.76c.77,1.38,1.44,2.67,2,3.87a25.84,25.84,0,0,1,1.1,2.54l.28.77a57.44,57.44,0,0,1-.35-7.18v-9.76h5.39v23.59H467.4l-5.63-9.77q-1.12-1.89-2-3.72c-.57-1.23-1-2.13-1.17-2.72l-.28-.87a45,45,0,0,1,.52,7.31v9.77Z"/><path class="cls-6" d="M477.87,285.91V262.32h5.39v23.59Zm11.93-11.8,8.37,11.8h-6.76l-7.91-11.73,7.63-11.86h6.41Z"/><path class="cls-6" d="M514.65,263.37v5a11.54,11.54,0,0,0-5.88-1.65,3.35,3.35,0,0,0-2.08.56,1.75,1.75,0,0,0-.72,1.44,2,2,0,0,0,.88,1.56,13.4,13.4,0,0,0,2.62,1.45c.73.33,1.33.61,1.81.86a14.78,14.78,0,0,1,1.64,1,6.31,6.31,0,0,1,1.47,1.37,6.73,6.73,0,0,1,1.31,4,6.44,6.44,0,0,1-2.34,5.16,9.35,9.35,0,0,1-6.23,2,13.81,13.81,0,0,1-6.79-1.47v-5.43a11.34,11.34,0,0,0,6.79,2.31,3.16,3.16,0,0,0,2-.64,2.1,2.1,0,0,0,.8-1.7,2.13,2.13,0,0,0-.1-.67,1.52,1.52,0,0,0-.39-.59,3.24,3.24,0,0,0-.54-.47,5.94,5.94,0,0,0-.77-.46l-.86-.44-1-.49-1.1-.49a11,11,0,0,1-3.66-2.59,5.89,5.89,0,0,1-1.38-4.09,6.09,6.09,0,0,1,2.24-4.92,9.36,9.36,0,0,1,6.19-1.87A14.35,14.35,0,0,1,514.65,263.37Z"/><path class="cls-6" d="M408.47,330.83a34.29,34.29,0,0,1-4.69-3.6,10.39,10.39,0,0,1-7.77,3.53c-4.66,0-8-2.66-8-6.89,0-3.5,2.77-5.57,5.71-7.42a11.55,11.55,0,0,1-2.24-6.13c0-3.64,2.38-5.95,5.7-5.95a4.68,4.68,0,0,1,5,4.87c0,3.5-2.94,5.6-5.91,7.56a64.63,64.63,0,0,0,7.49,7.7,16.58,16.58,0,0,0,3.39-7.6h2a21.29,21.29,0,0,1-3.95,8.82,40.42,40.42,0,0,0,4.41,3.36ZM402.41,326a66.51,66.51,0,0,1-7.77-8.19c-2.52,1.68-4.69,3.4-4.69,5.95,0,3.29,2.52,5.25,6.2,5.25A8.74,8.74,0,0,0,402.41,326Zm-7.14-10.53c2.7-1.68,5.11-3.4,5.11-6.13A3.19,3.19,0,0,0,397.2,306c-2.38,0-4,1.72-4,4.24A9.66,9.66,0,0,0,395.27,315.47Z"/><path class="cls-6" d="M399.89,349.37v5a11.54,11.54,0,0,0-5.88-1.65,3.33,3.33,0,0,0-2.08.56,1.75,1.75,0,0,0-.72,1.44,2,2,0,0,0,.87,1.56,13.54,13.54,0,0,0,2.63,1.45c.72.33,1.32.61,1.8.86a13.94,13.94,0,0,1,1.65,1,6.74,6.74,0,0,1,1.47,1.37,6.86,6.86,0,0,1-1,9.2,9.33,9.33,0,0,1-6.23,2,13.83,13.83,0,0,1-6.79-1.47v-5.43a11.38,11.38,0,0,0,6.79,2.31,3.12,3.12,0,0,0,2-.64,2.08,2.08,0,0,0,.81-1.7,2.14,2.14,0,0,0-.11-.67,1.49,1.49,0,0,0-.38-.59,4.3,4.3,0,0,0-.54-.47,7.76,7.76,0,0,0-.77-.46l-.86-.44-1-.49-1.11-.49a11,11,0,0,1-3.65-2.59,5.85,5.85,0,0,1-1.39-4.09,6.11,6.11,0,0,1,2.24-4.92,9.39,9.39,0,0,1,6.2-1.87A14.35,14.35,0,0,1,399.89,349.37Z"/><path class="cls-6" d="M403.74,371.91l2-23.59h5.91l3.29,8.54c.56,1.42,1,2.73,1.44,3.92s.65,2,.77,2.52l.17.7a63.92,63.92,0,0,1,2.45-7.14l3.33-8.54H429l2.45,23.59H426.1l-.87-9.14-.46-6.89q-.9,2.63-2.52,6.89l-3.32,8.89h-3.19l-3.29-8.89c-.53-1.44-1-2.74-1.36-3.88s-.62-1.94-.74-2.38l-.17-.63c0,1.66-.11,3.95-.32,6.89l-.73,9.14Z"/><path class="cls-6" d="M450.81,371.91l-1.43-4.83h-8.26l-1.44,4.83h-5.63l7.87-23.59h6.79l7.88,23.59Zm-8.4-9.17h5.67l-.24-.84q-1-3.43-1.66-5.85c-.44-1.61-.7-2.64-.79-3.11l-.14-.7q-.28,1.92-2.59,9.66Z"/><path class="cls-6" d="M460,371.91V348.32h5.39v23.59Z"/><path class="cls-6" d="M475.7,367.18h8.71v4.73h-14.1V348.32h5.39Z"/><path class="cls-6" d="M492.81,367.6h9.24v4.31H487.39V348.32h14.52v4.3h-9.1V358h8.12v4.27h-8.12Z"/><path class="cls-6" d="M710.8,122.56V117.8a5.05,5.05,0,0,0,2.7.81c1.66,0,2.48-.89,2.48-2.66V99.67h5.39v16.42a7.35,7.35,0,0,1-1.8,5.28,6.6,6.6,0,0,1-5,1.89A8.16,8.16,0,0,1,710.8,122.56Z"/><path class="cls-6" d="M724.87,111.36A12.29,12.29,0,0,1,728,102.6a12.12,12.12,0,0,1,16.71,0,12.31,12.31,0,0,1,3.11,8.78,12.3,12.3,0,0,1-3.13,8.77,12.15,12.15,0,0,1-16.71,0A12.34,12.34,0,0,1,724.87,111.36Zm7.32-5.26a9.77,9.77,0,0,0,0,10.53,5.44,5.44,0,0,0,8.33,0,9.77,9.77,0,0,0,0-10.53,5.42,5.42,0,0,0-8.33,0Z"/><path class="cls-6" d="M751.86,123.23V99.64h5.39v23.59Z"/><path class="cls-6" d="M762.15,123.23V99.64h5.91l5.5,9.76q1.16,2.07,2,3.87a25.84,25.84,0,0,1,1.1,2.54l.28.77a57.44,57.44,0,0,1-.35-7.18V99.64H782v23.59h-5.91l-5.64-9.77c-.74-1.26-1.4-2.5-2-3.72s-1-2.13-1.18-2.72l-.28-.87a44.92,44.92,0,0,1,.53,7.31v9.77Z"/><path class="cls-6" d="M734.22,168.16a36,36,0,0,1-4.69-3.61,10.37,10.37,0,0,1-7.77,3.53c-4.65,0-8-2.66-8-6.89,0-3.5,2.76-5.57,5.7-7.42a11.64,11.64,0,0,1-2.24-6.13c0-3.64,2.38-5.95,5.71-5.95a4.68,4.68,0,0,1,5,4.87c0,3.5-2.94,5.6-5.92,7.56a65.42,65.42,0,0,0,7.49,7.7,16.7,16.7,0,0,0,3.4-7.6h2a21.31,21.31,0,0,1-4,8.82,42.19,42.19,0,0,0,4.41,3.37Zm-6.05-4.84a65,65,0,0,1-7.77-8.19c-2.52,1.68-4.69,3.4-4.69,6,0,3.29,2.52,5.25,6.19,5.25A8.76,8.76,0,0,0,728.17,163.32ZM721,152.79c2.69-1.68,5.11-3.4,5.11-6.13A3.19,3.19,0,0,0,723,143.3c-2.38,0-4,1.72-4,4.24A9.66,9.66,0,0,0,721,152.79Z"/><path class="cls-6" d="M725.64,186.69v5a11.54,11.54,0,0,0-5.88-1.65,3.35,3.35,0,0,0-2.08.56,1.76,1.76,0,0,0-.72,1.44,2,2,0,0,0,.88,1.56,12.9,12.9,0,0,0,2.62,1.45c.73.33,1.33.61,1.81.86a14.78,14.78,0,0,1,1.64,1,6.31,6.31,0,0,1,1.47,1.37,6.92,6.92,0,0,1,.93,1.76,6.91,6.91,0,0,1-2,7.44,9.33,9.33,0,0,1-6.23,2,13.81,13.81,0,0,1-6.79-1.47v-5.43a11.36,11.36,0,0,0,6.79,2.31,3.14,3.14,0,0,0,2-.64,2.06,2.06,0,0,0,.8-1.7,2.13,2.13,0,0,0-.1-.67,1.52,1.52,0,0,0-.39-.59,3.78,3.78,0,0,0-.54-.47,5.94,5.94,0,0,0-.77-.46l-.86-.44-1-.49-1.1-.49a11,11,0,0,1-3.66-2.59,5.89,5.89,0,0,1-1.38-4.09,6.11,6.11,0,0,1,2.24-4.92,9.36,9.36,0,0,1,6.19-1.87A14.35,14.35,0,0,1,725.64,186.69Z"/><path class="cls-6" d="M744.05,185.64h5.43v23.59h-5.43v-9.42h-8.64v9.42H730V185.64h5.39v9.59h8.64Z"/><path class="cls-6" d="M769.32,209.23l-1.43-4.83h-8.26l-1.44,4.83h-5.63l7.87-23.59h6.79l7.88,23.59Zm-8.4-9.17h5.67l-.24-.84q-1-3.43-1.66-5.85c-.44-1.61-.7-2.64-.79-3.11l-.14-.7q-.28,1.92-2.59,9.66Z"/><path class="cls-6" d="M790.32,209.23,785.21,201h-1.64v8.19h-5.39V185.64h8.15a9.27,9.27,0,0,1,6.35,2.1,6.91,6.91,0,0,1,2.4,5.46q0,5-4.3,7l6,9.07ZM783.57,190v6.65h2.55c2.34,0,3.5-1.14,3.5-3.43a3.07,3.07,0,0,0-.91-2.36,3.46,3.46,0,0,0-2.48-.86Z"/><path class="cls-6" d="M805.09,204.92h9.24v4.31H799.67V185.64h14.52v4.3h-9.1v5.36h8.12v4.27h-8.12Z"/><path class="cls-6" d="M1053,271.84v11.9a14,14,0,0,1-8.47,2.45,13.07,13.07,0,0,1-9.21-3.26,12.67,12.67,0,0,1,.16-17.71,13.48,13.48,0,0,1,9.36-3.32,15.13,15.13,0,0,1,6.9,1.47v5.39a13.76,13.76,0,0,0-6.9-1.93,6.78,6.78,0,0,0-7.24,7.25,7.21,7.21,0,0,0,1.92,5.28,7,7,0,0,0,5.25,2,10.16,10.16,0,0,0,3-.45v-4.45h-3.82v-4.58Z"/><path class="cls-6" d="M1069.51,285.91l-5.11-8.19h-1.65v8.19h-5.39V262.32h8.16a9.3,9.3,0,0,1,6.35,2.1,6.91,6.91,0,0,1,2.4,5.46q0,5-4.31,7l6,9.07Zm-6.76-19.22v6.65h2.56q3.5,0,3.5-3.43a3.11,3.11,0,0,0-.91-2.36,3.5,3.5,0,0,0-2.49-.86Z"/><path class="cls-6" d="M1078,274a12.27,12.27,0,0,1,3.13-8.76,12.12,12.12,0,0,1,16.71,0,13.87,13.87,0,0,1,0,17.55,12.15,12.15,0,0,1-16.71,0A12.33,12.33,0,0,1,1078,274Zm7.31-5.26a9.77,9.77,0,0,0,0,10.53,5.44,5.44,0,0,0,8.33,0,9.77,9.77,0,0,0,0-10.53,5.42,5.42,0,0,0-8.33,0Z"/><path class="cls-6" d="M1117.42,262.67h4l2.31,8.33q.73,2.63,1.31,4.88c.39,1.51.65,2.57.79,3.2l.21.95c.3-2.08,1-5.1,2-9.07l2.17-8.64h5.5l-6.3,23.59h-6l-2.07-7.46c-.49-1.79-.89-3.31-1.21-4.55s-.5-2-.57-2.38l-.07-.52a52.92,52.92,0,0,1-1.89,7.45l-2.17,7.46h-6L1103,262.32h5.67l2.17,8.68c.47,1.87.85,3.55,1.16,5.06s.49,2.55.56,3.13l.14.84c.39-1.82,1.19-4.83,2.38-9Z"/><path class="cls-6" d="M1154.31,262.32v4.34h-5.74v19.25h-5.42V266.66h-5.78v-4.34Z"/><path class="cls-6" d="M1171.67,262.32h5.43v23.59h-5.43v-9.42H1163v9.42h-5.39V262.32H1163v9.59h8.64Z"/><path class="cls-6" d="M1054.84,330.83a34.91,34.91,0,0,1-4.69-3.6,10.37,10.37,0,0,1-7.77,3.53c-4.65,0-8-2.66-8-6.89,0-3.5,2.76-5.57,5.7-7.42a11.64,11.64,0,0,1-2.24-6.13c0-3.64,2.38-5.95,5.71-5.95a4.68,4.68,0,0,1,5,4.87c0,3.5-2.94,5.6-5.92,7.56a65.42,65.42,0,0,0,7.49,7.7,16.7,16.7,0,0,0,3.4-7.6h2a21.31,21.31,0,0,1-4,8.82,40.42,40.42,0,0,0,4.41,3.36Zm-6-4.83a65,65,0,0,1-7.77-8.19c-2.52,1.68-4.69,3.4-4.69,5.95,0,3.29,2.52,5.25,6.19,5.25A8.76,8.76,0,0,0,1048.79,326Zm-7.14-10.53c2.69-1.68,5.11-3.4,5.11-6.13a3.19,3.19,0,0,0-3.19-3.36c-2.38,0-4,1.72-4,4.24A9.66,9.66,0,0,0,1041.65,315.47Z"/><path class="cls-6" d="M1032.65,348.32h8.12a9.09,9.09,0,0,1,6.35,2.2,7.21,7.21,0,0,1,2.44,5.6,7.44,7.44,0,0,1-2.54,6,9.35,9.35,0,0,1-6.25,2.14H1038v7.63h-5.39ZM1038,360h1.79c2.84,0,4.27-1.3,4.27-3.89q0-3.5-4-3.5H1038Z"/><path class="cls-6" d="M1051.48,360a12.32,12.32,0,0,1,3.13-8.76,12.13,12.13,0,0,1,16.72,0,13.9,13.9,0,0,1,0,17.55,12.15,12.15,0,0,1-16.71,0A12.34,12.34,0,0,1,1051.48,360Zm7.32-5.26a9.77,9.77,0,0,0,0,10.53,5.44,5.44,0,0,0,8.33,0,9.77,9.77,0,0,0,0-10.53,5.42,5.42,0,0,0-8.33,0Z"/><path class="cls-6" d="M1091.73,349.37v5a11.54,11.54,0,0,0-5.88-1.65,3.35,3.35,0,0,0-2.08.56,1.75,1.75,0,0,0-.72,1.44,2,2,0,0,0,.88,1.56,13.11,13.11,0,0,0,2.62,1.45c.72.33,1.33.61,1.8.86a13.94,13.94,0,0,1,1.65,1,6.31,6.31,0,0,1,1.47,1.37,6.73,6.73,0,0,1,1.31,4,6.44,6.44,0,0,1-2.34,5.16,9.35,9.35,0,0,1-6.23,2,13.81,13.81,0,0,1-6.79-1.47v-5.43a11.34,11.34,0,0,0,6.79,2.31,3.16,3.16,0,0,0,2-.64,2.1,2.1,0,0,0,.8-1.7,2.13,2.13,0,0,0-.1-.67,1.52,1.52,0,0,0-.39-.59,4.3,4.3,0,0,0-.54-.47,6.73,6.73,0,0,0-.77-.46l-.86-.44-1-.49-1.1-.49a11,11,0,0,1-3.66-2.59,5.89,5.89,0,0,1-1.38-4.09,6.09,6.09,0,0,1,2.24-4.92,9.34,9.34,0,0,1,6.19-1.87A14.35,14.35,0,0,1,1091.73,349.37Z"/><path class="cls-6" d="M1096.46,371.91V348.32h5.38v23.59Z"/><path class="cls-6" d="M1122.46,348.32v4.34h-5.74v19.25h-5.42V352.66h-5.78v-4.34Z"/><path class="cls-6" d="M1126.14,371.91V348.32h5.38v23.59Z"/><path class="cls-6" d="M1156.55,348.32l-8,23.59h-5.95l-7.84-23.59h5.81l2.84,9.41c.51,1.68,1,3.3,1.33,4.85s.62,2.68.73,3.38l.18,1.08a71,71,0,0,1,2.27-9.31l2.84-9.41Z"/><path class="cls-6" d="M1164.91,367.6h9.24v4.31h-14.66V348.32H1174v4.3h-9.1V358H1173v4.27h-8.12Z"/><path class="cls-2" d="M44.65,279.75a5,5,0,1,1-4.95,4.95A4.94,4.94,0,0,1,44.65,279.75Z"/><path class="cls-7" d="M57.29,281H51.37v-1h5.92Zm-.53,10.07H53.13v.74h-1v-5.37h4.67Zm9.3.06H59.21V292h-1.1v-9.18a13.24,13.24,0,0,1-1,1.21,7.76,7.76,0,0,0-.75-.88l0,0H52.1v-.94h4.65v.54a16.36,16.36,0,0,0,2.75-5.36l1.17.32a23.82,23.82,0,0,1-1.22,2.86h2.16a21.33,21.33,0,0,0,1.25-3l1.22.31c-.4.89-.87,1.9-1.3,2.7h3v1.08h-3v2H65.5v1.09H62.78v2.05H65.5v1.07H62.78v2.19h3.28Zm-9.31-5.87H52.1v-1h4.65Zm0-6.37H52.17v-1h4.55Zm-3.59,8.53v2.69h2.61v-2.69Zm8.53-5.79H59.21v2h2.45Zm0,3.1H59.21v2.05h2.45Zm-2.45,5.31h2.45v-2.19H59.21Z"/><path class="cls-7" d="M74.06,279.24c-.1.47-.24,1.41-.42,2.29.76-.06,1.43-.11,1.81-.11,1.43,0,2.59.55,2.59,2.71a15.29,15.29,0,0,1-.92,5.78,2.26,2.26,0,0,1-2.34,1.34,8.56,8.56,0,0,1-1.89-.24l-.21-1.33a7.68,7.68,0,0,0,2,.32,1.32,1.32,0,0,0,1.39-.82,13.31,13.31,0,0,0,.77-4.89c0-1.48-.69-1.75-1.69-1.75-.39,0-1,0-1.73.11A33.09,33.09,0,0,1,70,291.28l-1.32-.51a25.3,25.3,0,0,0,3.38-8c-.85.08-1.62.18-2,.23s-1,.12-1.44.19l-.13-1.39c.5,0,.91,0,1.42,0s1.48-.1,2.44-.18a17.1,17.1,0,0,0,.41-3.49l1.49.16Zm8.63,6.49-1.25.59a18.73,18.73,0,0,0-2.85-5.79l1.17-.53A28.69,28.69,0,0,1,82.69,285.73Z"/><path class="cls-7" d="M90.49,280a37.83,37.83,0,0,0,4.88-.5v1.19a49.29,49.29,0,0,1-5.32.45,12,12,0,0,1-1.44,2.48,4.54,4.54,0,0,1,2.23-.59A2.05,2.05,0,0,1,93,284.45c1.09-.53,2.07-.92,2.9-1.3.48-.21.86-.38,1.31-.62l.53,1.2a12.15,12.15,0,0,0-1.42.51c-.9.33-2,.8-3.25,1.38,0,.92,0,2.28,0,3.07H91.85c0-.61.05-1.65.05-2.5-1.49.79-2.53,1.63-2.53,2.69,0,1.25,1.25,1.44,2.9,1.44a28.49,28.49,0,0,0,4.37-.38l0,1.28a37.77,37.77,0,0,1-4.39.29c-2.29,0-4.13-.5-4.13-2.45S90,286,91.87,285a1.34,1.34,0,0,0-1.46-1,4.21,4.21,0,0,0-2.75,1.17c-.47.44-.91,1-1.46,1.67l-1.09-.8a16.93,16.93,0,0,0,3.7-4.9h-.7c-.69,0-1.75,0-2.63-.1v-1.2a24,24,0,0,0,2.71.18c.33,0,.7,0,1,0a7.87,7.87,0,0,0,.4-2l1.32.11A17.41,17.41,0,0,1,90.49,280Z"/><path class="cls-7" d="M102.62,280.11a11.53,11.53,0,0,1-1.54,2.27,6.35,6.35,0,0,0-1-.62,9.86,9.86,0,0,0,2.42-4.44l1.15.26a11.49,11.49,0,0,1-.53,1.49h4.2v1h-2.81a9.46,9.46,0,0,1,.77,1.84l-1.09.42a10.3,10.3,0,0,0-.88-2.26Zm5.9,7a9.11,9.11,0,0,0,6,3.94,4.68,4.68,0,0,0-.77,1,9.68,9.68,0,0,1-6.38-4.82c-.9,2.11-2.65,3.83-6.45,4.77a3.77,3.77,0,0,0-.65-1c3.41-.77,5-2.19,5.8-3.94H100.3V286h6.16a15.17,15.17,0,0,0,.4-2.05c-1.75.16-3.57.27-5.22.34a2.8,2.8,0,0,0-.27-1A65,65,0,0,0,112.56,282l.7,1a36.32,36.32,0,0,1-5.09.85,15,15,0,0,1-.41,2.18h6.73v1.07Zm.2-6.93a11.12,11.12,0,0,1-1.52,2.18,5.8,5.8,0,0,0-1-.64,9.61,9.61,0,0,0,2.45-4.32l1.14.27c-.16.49-.34,1-.55,1.49h5.2v1h-3.26a9.26,9.26,0,0,1,.91,1.63l-1.09.42a9.17,9.17,0,0,0-1.09-2.05Z"/><path class="cls-7" d="M118.52,285.82a12.7,12.7,0,0,1-1.09,5.75,4.8,4.8,0,0,0-.84-.74,11,11,0,0,0,.88-5v-3.41h6.64v1h-5.59Zm-1.38-5.76v-1H120v-1.53h1.15v1.53H124v1Zm2.13.06a8.07,8.07,0,0,1,.61,2l-1,.25a8.81,8.81,0,0,0-.57-2.08Zm4.73,8.26a9.43,9.43,0,0,1-4.89,3.4,3,3,0,0,0-.67-.82A8.4,8.4,0,0,0,123,288Zm-1-4.33a10.38,10.38,0,0,1-3.56,2,4,4,0,0,0-.68-.69,10.41,10.41,0,0,0,3.34-1.71Zm.41,2.17a11.62,11.62,0,0,1-3.87,2.47,4.34,4.34,0,0,0-.7-.72,10.44,10.44,0,0,0,3.65-2.13Zm-2-4.08a19.13,19.13,0,0,0,.63-2.08l1.07.23c-.26.73-.5,1.53-.74,2.08Zm5.7,7.7a10.67,10.67,0,0,1-3.31,2.19,5.36,5.36,0,0,0-.8-.76,9.41,9.41,0,0,0,3.1-2Zm-.26-9.15c.1-.48.21-1,.31-1.53h-3v-1h7.17v1h-2.94c-.13.52-.29,1.06-.44,1.53H131V289h-6.38v-8.3Zm3.11.94h-4.26v1.54H130Zm0,2.4h-4.26v1.55H130Zm0,2.45h-4.26v1.57H130Zm-.75,2.83a19.49,19.49,0,0,1,2.53,2.05l-.92.66a18.27,18.27,0,0,0-2.51-2.11Z"/><path class="cls-7" d="M136.75,279.82A36.55,36.55,0,0,0,136,286a16.74,16.74,0,0,0,.14,2.24c.27-.72.66-1.68.93-2.33l.67.51a32.91,32.91,0,0,0-1.14,3.58,4.15,4.15,0,0,0-.08.72c0,.18,0,.4.05.56l-1.15.08a20.07,20.07,0,0,1-.59-5.13,45.08,45.08,0,0,1,.72-6.42,7.57,7.57,0,0,0,.11-1.14l1.42.13C137,279,136.81,279.53,136.75,279.82Zm3.73,8.15c0,.73.52,1.44,2.7,1.44a17.58,17.58,0,0,0,4-.42l0,1.35a21.94,21.94,0,0,1-4,.33c-2.69,0-3.89-.89-3.89-2.4a9.06,9.06,0,0,1,.27-1.89l1.16.12A5.57,5.57,0,0,0,140.48,288Zm6.19-8v1.3a38,38,0,0,1-6.58,0V280A26.8,26.8,0,0,0,146.67,280Z"/><path class="cls-7" d="M55.58,311.93c-.08,1.81-.19,5.59-.19,8,0,1.76,1.1,2.39,2.62,2.39A6.67,6.67,0,0,0,63.74,319l.92,1.08A8.06,8.06,0,0,1,58,323.6c-2.31,0-3.89-1-3.89-3.57,0-2.37.16-6.42.16-8.1a8.9,8.9,0,0,0-.13-1.63l1.62,0A14.38,14.38,0,0,0,55.58,311.93Z"/><path class="cls-7" d="M74.48,311.15c0,.21,0,.56,0,1a37.51,37.51,0,0,0,4.34-.43l0,1.17c-1.26.14-2.78.29-4.32.37v2.24a40.06,40.06,0,0,0,4.47-.43l0,1.2c-1.5.19-2.91.32-4.43.37,0,.83.08,1.69.11,2.46a12.77,12.77,0,0,1,4.67,2.5l-.73,1.14a11.66,11.66,0,0,0-3.87-2.42c0,.4,0,.73,0,1,0,1.1-.74,2.24-2.82,2.24-2.31,0-3.55-.81-3.55-2.35s1.39-2.45,3.69-2.45a8.41,8.41,0,0,1,1.35.1c0-.72,0-1.49-.07-2.18h-.91c-1.09,0-2.85-.1-4-.23l0-1.2a28.56,28.56,0,0,0,4,.31h.86v-2.24h-.7c-1.12,0-3.09-.16-4.1-.28l0-1.18a29.45,29.45,0,0,0,4.1.35h.74V311a7,7,0,0,0-.07-1h1.37A8,8,0,0,0,74.48,311.15ZM71.73,322.4c.91,0,1.69-.29,1.69-1.39,0-.27,0-.66,0-1.07a6.72,6.72,0,0,0-1.56-.16c-1.52,0-2.35.59-2.35,1.32S70.14,322.4,71.73,322.4Z"/><path class="cls-7" d="M85.45,311.93c-.08,1.81-.19,5.59-.19,8,0,1.76,1.11,2.39,2.63,2.39A6.68,6.68,0,0,0,93.62,319l.91,1.08a8,8,0,0,1-6.69,3.54c-2.31,0-3.89-1-3.89-3.57,0-2.37.16-6.42.16-8.1A8.1,8.1,0,0,0,84,310.3l1.62,0A14.38,14.38,0,0,0,85.45,311.93Z"/><path class="cls-7" d="M102.09,311.47c-.06.33-.14.75-.24,1.18a23.6,23.6,0,0,0,3.08-.57v1.26a31.25,31.25,0,0,1-3.33.55c-.15.7-.32,1.44-.51,2.14a49.83,49.83,0,0,1-2.5,7.33l-1.41-.48a34.93,34.93,0,0,0,2.69-7.15c.14-.53.29-1.14.41-1.72-.52,0-1,.05-1.47.05-.7,0-1.28,0-1.85-.06l0-1.25a15.53,15.53,0,0,0,1.92.11c.53,0,1.1,0,1.73-.08.11-.56.19-1.07.24-1.39a6.1,6.1,0,0,0,0-1.33l1.54.13C102.29,310.54,102.16,311.15,102.09,311.47ZM104,320.4c0,.75.41,1.49,2.7,1.49a15.22,15.22,0,0,0,3.12-.32l0,1.3a22.6,22.6,0,0,1-3.09.22c-2.53,0-3.91-.77-3.91-2.35a9.78,9.78,0,0,1,.24-1.89l1.2.11A5.81,5.81,0,0,0,104,320.4Zm2.82-5.47a24.81,24.81,0,0,1,2.77.14l0,1.22a18.87,18.87,0,0,0-2.69-.2,26.61,26.61,0,0,0-3,.16v-1.18C104.73,315,105.79,314.93,106.82,314.93Z"/><path class="cls-7" d="M118.35,311.24c-.1.47-.24,1.41-.42,2.29.76-.06,1.43-.11,1.81-.11,1.43,0,2.6.55,2.6,2.71a15.28,15.28,0,0,1-.93,5.78,2.26,2.26,0,0,1-2.34,1.34,8.56,8.56,0,0,1-1.89-.24l-.21-1.33a7.75,7.75,0,0,0,2,.32,1.34,1.34,0,0,0,1.4-.82,13.54,13.54,0,0,0,.76-4.89c0-1.48-.68-1.75-1.69-1.75-.39,0-1,0-1.73.11a32.74,32.74,0,0,1-3.36,8.63l-1.32-.51a25.3,25.3,0,0,0,3.38-8c-.85.08-1.62.18-2,.23s-1,.12-1.44.19l-.13-1.39c.5,0,.91,0,1.42,0s1.48-.1,2.44-.18a17.1,17.1,0,0,0,.41-3.49l1.49.16Zm8.63,6.49-1.25.59a18.73,18.73,0,0,0-2.85-5.79l1.17-.53A28.69,28.69,0,0,1,127,317.73Z"/><path class="cls-7" d="M136.34,313.71c0-1.1-.8-1.91-2.44-1.91a4.14,4.14,0,0,0-3,1.46l-.87-.8a5.33,5.33,0,0,1,4.05-1.86c2.26,0,3.7,1.16,3.7,3,0,2.41-3.83,2.91-3.39,5.31h-1.32C132.56,316.25,136.34,315.53,136.34,313.71Zm-3.64,8.1a1,1,0,1,1,2.07,0,1,1,0,1,1-2.07,0Z"/><path class="cls-2" d="M44.65,343.75a5,5,0,1,1-4.95,4.95A4.94,4.94,0,0,1,44.65,343.75Z"/><path class="cls-7" d="M56.83,343.1c0,.38,0,1-.07,1.73a21.24,21.24,0,0,0,3.3-.64l0,1.25a30.51,30.51,0,0,1-3.36.56c0,.75,0,1.52,0,2.16v.56a11.9,11.9,0,0,1,3.52-.59c2.34,0,4,1.26,4,3.18S63,354.48,60.83,355a11.94,11.94,0,0,1-2,.22l-.44-1.29a9,9,0,0,0,1.87-.11c1.41-.28,2.69-1,2.69-2.5s-1.23-2.1-2.76-2.1a10.43,10.43,0,0,0-3.48.63c0,1.36.06,2.78.06,3.47,0,1.49-.54,2-1.41,2-1.25,0-3.33-1.24-3.33-2.66s1.67-2.72,3.51-3.51v-.91c0-.64,0-1.39,0-2.09-.45,0-.85,0-1.18,0a16.34,16.34,0,0,1-2.05-.08l0-1.21a14.9,14.9,0,0,0,2.05.12c.36,0,.78,0,1.23,0,0-.84,0-1.54,0-1.83a8,8,0,0,0-.08-1.13h1.43A8.34,8.34,0,0,0,56.83,343.1ZM55,353.94c.37,0,.6-.26.6-.79s0-1.66-.05-2.83c-1.31.61-2.29,1.54-2.29,2.26S54.41,353.94,55,353.94Zm10.54-7.83-.66,1a20.71,20.71,0,0,0-3.58-2.4l.57-1A29.55,29.55,0,0,1,65.57,346.11Z"/><path class="cls-7" d="M79.15,345.84A11.13,11.13,0,0,1,76,348.91a21.51,21.51,0,0,0,6.21,1.68,4.72,4.72,0,0,0-.76,1.14c-.73-.11-1.45-.26-2.16-.43V356h-1.2v-.51H71.63V356H70.49v-4.53c-.82.25-1.63.46-2.43.64a3.86,3.86,0,0,0-.6-1,23.22,23.22,0,0,0,6.33-2.1,10.62,10.62,0,0,1-2.16-1.87,13.82,13.82,0,0,1-2.5,1.56,3.75,3.75,0,0,0-.8-.84,10.71,10.71,0,0,0,4.55-3.6l1.28.24c-.23.31-.47.63-.74.94h4.72l.21-.05Zm-9.88,0H68.14v-3H74.2V341.4h1.2v1.43h6.13v3H80.35v-1.89H69.27Zm9.37,5.3a17.78,17.78,0,0,1-3.76-1.5,22.71,22.71,0,0,1-3.37,1.5Zm-.55,3.31v-2.32H71.63v2.32Zm-5.63-8a9.2,9.2,0,0,0,2.43,1.93,10.66,10.66,0,0,0,2.44-2H72.51Z"/><path class="cls-7" d="M89.11,350.67a25.56,25.56,0,0,0-1.26-2.3V356H86.76v-7.48a16.75,16.75,0,0,1-2,4.47,6.65,6.65,0,0,0-.61-1,17.31,17.31,0,0,0,2.43-6H84.52v-1.11h2.24v-3.45h1.09v3.45h1.83V346H87.85v1c.45.59,1.65,2.4,1.92,2.83ZM93.33,353c-1.29.75-2.65,1.53-3.74,2.14l-.56-1c1-.51,2.52-1.33,4-2.13ZM96,351.7a7,7,0,0,0,3.17,2.67,5.23,5.23,0,0,0-.77,1,8.42,8.42,0,0,1-3.56-3.75v3.09c0,.64-.12,1-.54,1.16a6,6,0,0,1-2.13.2,3.85,3.85,0,0,0-.33-1.08h1.6c.2,0,.25-.07.25-.28v-6h-4v-1h4v-1.23H90.46v-.93h3.23v-1.14H90v-1h2a13.69,13.69,0,0,0-.8-1.64l.92-.31a8.44,8.44,0,0,1,1,1.84l-.29.11h2.78l-.14,0a14.34,14.34,0,0,0,.93-2l1.16.34c-.33.59-.68,1.21-1,1.69h2.12v1H94.84v1.14H98.3v.93H94.84v1.23h4v1h-4v.64a10.16,10.16,0,0,0,1,2.08,16.42,16.42,0,0,0,2-2.15l.92.64a21.34,21.34,0,0,1-2.18,2.18Zm-5-2.37a11,11,0,0,1,1.65,2.06l-.86.61a11.64,11.64,0,0,0-1.6-2.14Z"/><path class="cls-7" d="M104.23,343.82a37.61,37.61,0,0,0-.8,6.13,16.74,16.74,0,0,0,.15,2.24c.27-.72.65-1.68.93-2.33l.67.51A32.91,32.91,0,0,0,104,354a3.36,3.36,0,0,0-.08.72c0,.18,0,.4.05.56l-1.15.08a20.07,20.07,0,0,1-.59-5.13,43.66,43.66,0,0,1,.72-6.42,7.57,7.57,0,0,0,.11-1.14l1.42.13C104.44,343,104.3,343.53,104.23,343.82ZM108,352c0,.73.53,1.44,2.71,1.44a17.58,17.58,0,0,0,4-.42l0,1.35a21.94,21.94,0,0,1-4,.33c-2.69,0-3.89-.89-3.89-2.4a9.06,9.06,0,0,1,.27-1.89l1.15.12A5.57,5.57,0,0,0,108,352Zm6.2-8v1.3a38,38,0,0,1-6.58,0V344A26.8,26.8,0,0,0,114.16,344Z"/><path class="cls-7" d="M129.82,344.86a15.41,15.41,0,0,1-1.77,6,11.32,11.32,0,0,1-6.07,4.52l-1.09-1.11a10.21,10.21,0,0,0,6-4.06,12.41,12.41,0,0,0,1.52-5.37h-8.84V348c0,.24,0,.64,0,1h-1.46a8,8,0,0,0,.07-1v-3.4a7.64,7.64,0,0,0-.07-1.08c.43,0,1,.05,1.72.05h8.21a4.34,4.34,0,0,0,1-.1l1,.63A7,7,0,0,0,129.82,344.86Z"/><path class="cls-7" d="M139.1,343.61a7.73,7.73,0,0,1-.38.68h4.33a2.48,2.48,0,0,0,1-.17l1.08.66a4.65,4.65,0,0,0-.37.85,15.56,15.56,0,0,1-2.85,5.51,14.14,14.14,0,0,1-6.37,4.35l-1.15-1a12.91,12.91,0,0,0,6.38-4,13.06,13.06,0,0,0,2.56-5H138a16.08,16.08,0,0,1-4.06,3.93l-1.11-.83a13.18,13.18,0,0,0,5-5.41,5.7,5.7,0,0,0,.5-1.26l1.48.48A11.43,11.43,0,0,0,139.1,343.61Z"/><path class="cls-7" d="M160,344.86a15.24,15.24,0,0,1-1.77,6,11.32,11.32,0,0,1-6.07,4.52l-1.09-1.11a10.18,10.18,0,0,0,6-4.06,12.41,12.41,0,0,0,1.52-5.37h-8.84V348c0,.24,0,.64.05,1h-1.46a8,8,0,0,0,.07-1v-3.4a7.64,7.64,0,0,0-.07-1.08c.44,0,1,.05,1.72.05h8.21a4.49,4.49,0,0,0,1-.1l1,.63C160.16,344.27,160.05,344.7,160,344.86Z"/><path class="cls-7" d="M169.29,343.61a7.73,7.73,0,0,1-.38.68h4.34a2.54,2.54,0,0,0,1-.17l1.07.66a4.65,4.65,0,0,0-.37.85,15.4,15.4,0,0,1-2.85,5.51,14.14,14.14,0,0,1-6.37,4.35l-1.15-1a13,13,0,0,0,6.39-4,13.35,13.35,0,0,0,2.56-5h-5.41a16.13,16.13,0,0,1-4.07,3.93l-1.1-.83a13.22,13.22,0,0,0,5-5.41,5.7,5.7,0,0,0,.5-1.26l1.49.48A11.7,11.7,0,0,0,169.29,343.61Z"/><path class="cls-7" d="M183.74,344a37.83,37.83,0,0,0,4.88-.5v1.19a49.29,49.29,0,0,1-5.32.45,12.45,12.45,0,0,1-1.44,2.48,4.54,4.54,0,0,1,2.23-.59,2.05,2.05,0,0,1,2.14,1.44c1.09-.53,2.07-.92,2.9-1.3.48-.21.86-.38,1.31-.62l.53,1.2a13,13,0,0,0-1.43.51c-.89.33-2,.8-3.24,1.38,0,.92,0,2.28,0,3.07H185.1c0-.61.05-1.65.05-2.5-1.49.79-2.53,1.63-2.53,2.69,0,1.25,1.25,1.44,2.9,1.44a28.6,28.6,0,0,0,4.37-.38l0,1.28a37.44,37.44,0,0,1-4.38.29c-2.29,0-4.13-.5-4.13-2.45s1.9-3.08,3.78-4.05a1.34,1.34,0,0,0-1.46-1,4.21,4.21,0,0,0-2.75,1.17c-.47.44-.91,1-1.46,1.67l-1.09-.8a16.93,16.93,0,0,0,3.7-4.9h-.71c-.68,0-1.74,0-2.62-.1v-1.2a24,24,0,0,0,2.7.18c.34,0,.71,0,1.06,0a7.87,7.87,0,0,0,.4-2l1.31.11A15,15,0,0,1,183.74,344Z"/><path class="cls-7" d="M62.5,373.48a1.82,1.82,0,0,1,1.81,1.81,1.8,1.8,0,0,1-1.81,1.79,2,2,0,0,1-.61-.09,1.22,1.22,0,0,1,0,.17,15.59,15.59,0,0,1-2.39,5.91,12.21,12.21,0,0,1-6.3,4.28l-1.09-1.21a10.48,10.48,0,0,0,6.24-3.84,11.93,11.93,0,0,0,2.1-5.22H52.24c-.64,0-1.19,0-1.6.05v-1.42a13,13,0,0,0,1.6.11h8a4.7,4.7,0,0,0,.51,0,2.09,2.09,0,0,1-.08-.51A1.81,1.81,0,0,1,62.5,373.48Zm0,2.87a1.07,1.07,0,1,0-1.06-1.06A1.07,1.07,0,0,0,62.5,376.35Z"/><path class="cls-7" d="M67.76,385.49v-9.16a9,9,0,0,0-.15-1.45H69.2a9.49,9.49,0,0,0-.11,1.45v9.08A17.26,17.26,0,0,0,77.84,380l.72,1.12a18.56,18.56,0,0,1-9.36,5.72,2.22,2.22,0,0,0-.68.28l-.92-.8A1.75,1.75,0,0,0,67.76,385.49Z"/><path class="cls-7" d="M84.68,380.17c-1.61.32-3,.61-3.68.76l-.24-1.35c.72-.08,2.23-.35,3.92-.67v-2.74a8.93,8.93,0,0,0-.09-1.47h1.5a12.08,12.08,0,0,0-.09,1.47v2.5c2.72-.53,5.52-1.1,6.19-1.26a2.7,2.7,0,0,0,.85-.29l.94.73-.4.64a22.72,22.72,0,0,1-3.28,4.66l-1.1-.65a15.86,15.86,0,0,0,2.85-3.81c-.28,0-3.22.64-6,1.21v4.77c0,1.11.4,1.46,2.32,1.46a24.26,24.26,0,0,0,5-.48l0,1.38a35.56,35.56,0,0,1-5,.33c-3,0-3.54-.78-3.54-2.35Zm8.84-3.93-.86.38a19.94,19.94,0,0,0-1.3-2.21l.85-.37A22,22,0,0,1,93.52,376.24Zm1.79-.66-.86.38a15.57,15.57,0,0,0-1.33-2.19l.85-.37A20.7,20.7,0,0,1,95.31,375.58Z"/><path class="cls-7" d="M104,383.44a15,15,0,0,0,5.35-5.89l.77,1.36a16.08,16.08,0,0,1-5.38,5.7,17.6,17.6,0,0,1-6.29,2.48l-.85-1.31A16.65,16.65,0,0,0,104,383.44Zm-.94-5.07-1,1a33,33,0,0,0-4-3.34l.92-1A35.31,35.31,0,0,1,103.09,378.37Z"/><path class="cls-7" d="M114.29,376.06a10.68,10.68,0,0,0-.13-1.66h1.57c0,.49-.12,1.18-.12,1.66v2.61a50.57,50.57,0,0,1,6.84,2.64l-.55,1.36a42.07,42.07,0,0,0-6.29-2.58c0,2.41,0,4.82,0,5.29a17.62,17.62,0,0,0,.1,1.89h-1.56a14.19,14.19,0,0,0,.12-1.89Z"/><path class="cls-7" d="M128.45,375.93c-.08,1.81-.2,5.59-.2,8,0,1.76,1.11,2.39,2.63,2.39a6.67,6.67,0,0,0,5.73-3.31l.91,1.08a8,8,0,0,1-6.69,3.54c-2.3,0-3.89-1-3.89-3.57,0-2.37.16-6.42.16-8.1a8.1,8.1,0,0,0-.13-1.63l1.62,0A12.34,12.34,0,0,0,128.45,375.93Z"/><path class="cls-7" d="M147.34,375.15c0,.21,0,.56,0,1a37.73,37.73,0,0,0,4.34-.43l0,1.17c-1.27.14-2.79.29-4.32.37v2.24a39.66,39.66,0,0,0,4.46-.43v1.2c-1.51.19-2.92.32-4.44.37,0,.83.08,1.69.11,2.46a12.83,12.83,0,0,1,4.68,2.5l-.74,1.14a11.56,11.56,0,0,0-3.87-2.42c0,.4,0,.73,0,1,0,1.1-.74,2.24-2.82,2.24-2.3,0-3.55-.81-3.55-2.35s1.39-2.45,3.7-2.45a8.37,8.37,0,0,1,1.34.1c0-.72,0-1.49-.06-2.18h-.91c-1.09,0-2.85-.1-4-.23v-1.2a28.42,28.42,0,0,0,4,.31h.87v-2.24h-.71c-1.12,0-3.09-.16-4.1-.28v-1.18a29.32,29.32,0,0,0,4.1.35h.73V375a9.14,9.14,0,0,0-.06-1h1.36A8,8,0,0,0,147.34,375.15Zm-2.75,11.25c.91,0,1.7-.29,1.7-1.39,0-.27,0-.66,0-1.07a6.63,6.63,0,0,0-1.55-.16c-1.52,0-2.36.59-2.36,1.32S143,386.4,144.59,386.4Z"/><path class="cls-7" d="M158.32,375.93c-.08,1.81-.19,5.59-.19,8,0,1.76,1.1,2.39,2.62,2.39a6.67,6.67,0,0,0,5.73-3.31l.91,1.08a8,8,0,0,1-6.69,3.54c-2.3,0-3.89-1-3.89-3.57,0-2.37.16-6.42.16-8.1a8.1,8.1,0,0,0-.13-1.63l1.62,0A12.34,12.34,0,0,0,158.32,375.93Z"/><path class="cls-7" d="M175,375.47c-.07.33-.15.75-.24,1.18a23.44,23.44,0,0,0,3.07-.57v1.26a31.25,31.25,0,0,1-3.33.55c-.14.7-.32,1.44-.51,2.14a49.83,49.83,0,0,1-2.5,7.33l-1.41-.48a34.93,34.93,0,0,0,2.69-7.15c.15-.53.29-1.14.42-1.72-.53,0-1,.05-1.47.05-.71,0-1.28,0-1.86-.06l0-1.25a15.64,15.64,0,0,0,1.92.11c.53,0,1.11,0,1.73-.08.11-.56.19-1.07.24-1.39a6.16,6.16,0,0,0,.05-1.33l1.54.13C175.15,374.54,175,375.15,175,375.47Zm1.9,8.93c0,.75.42,1.49,2.71,1.49a15.29,15.29,0,0,0,3.12-.32l-.05,1.3a22.48,22.48,0,0,1-3.09.22c-2.53,0-3.9-.77-3.9-2.35a9.78,9.78,0,0,1,.24-1.89l1.2.11A5.42,5.42,0,0,0,176.86,384.4Zm2.82-5.47a24.81,24.81,0,0,1,2.77.14l0,1.22a19,19,0,0,0-2.69-.2,26.79,26.79,0,0,0-3,.16v-1.18C177.6,379,178.66,378.93,179.68,378.93Z"/><path class="cls-7" d="M191.21,375.24c-.09.47-.24,1.41-.41,2.29.75-.06,1.42-.11,1.81-.11,1.42,0,2.59.55,2.59,2.71a15.28,15.28,0,0,1-.93,5.78,2.25,2.25,0,0,1-2.34,1.34,8.55,8.55,0,0,1-1.88-.24l-.21-1.33a7.68,7.68,0,0,0,2,.32,1.32,1.32,0,0,0,1.39-.82,13.52,13.52,0,0,0,.77-4.89c0-1.48-.69-1.75-1.7-1.75-.38,0-1,0-1.73.11a32.74,32.74,0,0,1-3.36,8.63l-1.31-.51a25.77,25.77,0,0,0,3.38-8c-.85.08-1.62.18-2,.23s-1,.12-1.44.19l-.13-1.39c.5,0,.92,0,1.43,0s1.47-.1,2.43-.18a16.45,16.45,0,0,0,.42-3.49l1.49.16C191.34,374.59,191.28,374.94,191.21,375.24Zm8.63,6.49-1.25.59a18.51,18.51,0,0,0-2.85-5.79l1.17-.53A27.67,27.67,0,0,1,199.84,381.73Z"/><path class="cls-7" d="M209.2,377.71c0-1.1-.8-1.91-2.43-1.91a4.16,4.16,0,0,0-3,1.46l-.86-.8a5.3,5.3,0,0,1,4.05-1.86c2.25,0,3.7,1.16,3.7,3,0,2.41-3.83,2.91-3.4,5.31h-1.31C205.42,380.25,209.2,379.53,209.2,377.71Zm-3.63,8.1a1,1,0,1,1,2.06,0,1,1,0,1,1-2.06,0Z"/><path class="cls-4" d="M685.89,279.75a5,5,0,1,1-4.95,4.95A4.94,4.94,0,0,1,685.89,279.75Z"/><path class="cls-7" d="M697.69,284.37l-.72,1.12a35,35,0,0,0-3.51-2.2l.72-1.08C695.13,282.72,697,283.87,697.69,284.37Zm1.87,3.82a16.41,16.41,0,0,0,6.07-5.87l.76,1.33a18.81,18.81,0,0,1-6.16,5.71,19.45,19.45,0,0,1-5.3,2l-.73-1.3A17.54,17.54,0,0,0,699.56,288.19Zm.51-7.33-.75,1.11a41.08,41.08,0,0,0-3.44-2.29l.72-1.08C697.54,279.13,699.38,280.37,700.07,280.86Zm4.85.47-.91.41a18.08,18.08,0,0,0-1.46-2.53l.88-.37A23.74,23.74,0,0,1,704.92,281.33Zm2.15-.8-.92.41a16.6,16.6,0,0,0-1.52-2.48l.9-.38A23,23,0,0,1,707.07,280.53Z"/><path class="cls-7" d="M711.5,282.06h6.19c.35,0,.77,0,1,0,0,.18,0,.51,0,.82v8c0,.25,0,.64,0,.86h-1.26c0-.14,0-.38,0-.64H711c-.51,0-1.07,0-1.33,0v-1.28a10.2,10.2,0,0,0,1.31.07h6.45V287h-5.77c-.57,0-1.12,0-1.44,0v-1.23c.3,0,.87.05,1.42.05h5.79V283.2H711.5c-.42,0-1.35,0-1.64.05V282C710.17,282,711.08,282.06,711.5,282.06Z"/><path class="cls-7" d="M733.47,279.6l-.61.27.78.5a3.37,3.37,0,0,0-.24.79,15.89,15.89,0,0,1-2.38,5.91,12.32,12.32,0,0,1-6.31,4.28l-1.09-1.21a10.54,10.54,0,0,0,6.25-3.84,12.15,12.15,0,0,0,2.09-5.22h-8.19c-.63,0-1.19,0-1.59.05v-1.42a12.84,12.84,0,0,0,1.6.11h8a3.35,3.35,0,0,0,.69-.05,20.34,20.34,0,0,0-1.17-1.92l.88-.37C732.57,278,733.15,279,733.47,279.6Zm2.09-.42-.88.38a18,18,0,0,0-1.31-2.12l.88-.37A21.35,21.35,0,0,1,735.56,279.18Z"/><path class="cls-7" d="M738.12,283H748.6a9.13,9.13,0,0,0,1.25-.08v1.33c-.35,0-.86,0-1.25,0h-4.35a9.57,9.57,0,0,1-1,4.37,7.69,7.69,0,0,1-3.15,2.93l-1.18-.88a6.56,6.56,0,0,0,3-2.45,7.7,7.7,0,0,0,.93-4h-4.8c-.48,0-1,0-1.39,0V283A12.11,12.11,0,0,0,738.12,283Zm2-4h6.48a12.71,12.71,0,0,0,1.49-.1v1.33c-.47,0-1,0-1.49,0H740.1c-.52,0-1.05,0-1.45,0v-1.33A12.69,12.69,0,0,0,740.09,279Z"/><path class="cls-7" d="M763.88,283.55a11.1,11.1,0,0,1-2.33,4.55,11.62,11.62,0,0,1-5.73,3.34l-1-1.14a10.62,10.62,0,0,0,5.64-2.92,8.31,8.31,0,0,0,1.9-3.54h-8.5c-.38,0-1,0-1.57.05v-1.35a13.89,13.89,0,0,0,1.57.1h8.44a2.06,2.06,0,0,0,.88-.13l.91.58A3.55,3.55,0,0,0,763.88,283.55Zm-8.7-4.61h6.29a10.45,10.45,0,0,0,1.45-.08v1.33c-.38,0-.93-.05-1.47-.05h-6.27c-.5,0-1,0-1.45.05v-1.33A10.73,10.73,0,0,0,755.18,278.94Z"/><path class="cls-7" d="M777.13,280.78a19.91,19.91,0,0,1-2.69,4.69,44,44,0,0,1,4.68,4.79l-1.12,1a37.23,37.23,0,0,0-4.41-4.76,20.39,20.39,0,0,1-6.24,4.68l-1-1.08a18.26,18.26,0,0,0,6.59-4.75,14,14,0,0,0,2.66-4.45h-6.24c-.56,0-1.45.06-1.62.08v-1.46a15.49,15.49,0,0,0,1.62.1h6.17a4.32,4.32,0,0,0,1.2-.13l.82.63A4.84,4.84,0,0,0,777.13,280.78Z"/><path class="cls-7" d="M789,291.28l-.75-1.18a12.37,12.37,0,0,0,1.38-.21,4.85,4.85,0,0,0,4.07-4.76,4.47,4.47,0,0,0-4.28-4.64,31.5,31.5,0,0,1-1,4.61c-1,3.3-2.24,5-3.73,5s-2.85-1.63-2.85-4.27a6.82,6.82,0,0,1,7-6.52,5.8,5.8,0,0,1,6.13,5.89C795,288.54,792.78,290.79,789,291.28Zm-4.22-2.67c.75,0,1.6-1.07,2.42-3.78a25.62,25.62,0,0,0,.89-4.32,5.58,5.58,0,0,0-5,5.19C783.11,287.71,784,288.61,784.76,288.61Z"/><path class="cls-7" d="M808.46,280.3a22.38,22.38,0,0,1-2.4,4.72,40.34,40.34,0,0,1,4,3.67l-1,1.1a36.42,36.42,0,0,0-3.77-3.68,20.31,20.31,0,0,1-6.28,5.17l-1.1-1a17.76,17.76,0,0,0,6.35-5,50.3,50.3,0,0,0-4.51-3.24l.83-1c1.38.89,3.23,2.2,4.5,3.17a17.74,17.74,0,0,0,2.17-4.37,7.59,7.59,0,0,0,.32-1.18l1.48.51A8.32,8.32,0,0,0,808.46,280.3Z"/><path class="cls-7" d="M815.43,286l-1.21.45a28.72,28.72,0,0,0-1.43-3.6l1.19-.46C814.3,283.05,815.13,285.15,815.43,286Zm7.81-2.72a12.57,12.57,0,0,1-2.27,4.92,12.23,12.23,0,0,1-5.22,3.81l-1-1.08a10.75,10.75,0,0,0,5.2-3.41,11,11,0,0,0,2.21-5.47l1.37.43C823.37,282.8,823.31,283.05,823.24,283.26ZM819,285l-1.18.42a30.15,30.15,0,0,0-1.25-3.47l1.17-.4C818,282.21,818.75,284.32,819,285Z"/><path class="cls-7" d="M829.88,283.87c-1.62.34-3,.62-3.7.77l-.24-1.33c.72-.1,2.24-.37,3.94-.69v-2.74a9,9,0,0,0-.11-1.47h1.52a9.18,9.18,0,0,0-.11,1.47v2.5c2.72-.53,5.52-1.1,6.19-1.25a3,3,0,0,0,.85-.29l.94.74a7.23,7.23,0,0,0-.38.64,24.56,24.56,0,0,1-3.28,4.66l-1.12-.67a15.12,15.12,0,0,0,2.85-3.81l-6.05,1.21v4.77c0,1.11.41,1.46,2.32,1.46a26.05,26.05,0,0,0,5-.46l-.06,1.37a34.27,34.27,0,0,1-5,.32c-3,0-3.52-.77-3.52-2.35Z"/><path class="cls-7" d="M848.91,287.44a15.08,15.08,0,0,0,5.34-5.89l.77,1.36a16,16,0,0,1-5.38,5.7,17.6,17.6,0,0,1-6.29,2.48l-.85-1.31A16.77,16.77,0,0,0,848.91,287.44Zm-.95-5.07-1,1a33.67,33.67,0,0,0-4-3.34l.91-1A34.48,34.48,0,0,1,848,282.37Z"/><path class="cls-7" d="M686.14,316.37l-.72,1.12a35,35,0,0,0-3.51-2.2l.72-1.08C683.58,314.72,685.45,315.87,686.14,316.37Zm1.87,3.82a16.41,16.41,0,0,0,6.07-5.87l.76,1.33a18.81,18.81,0,0,1-6.16,5.71,19.52,19.52,0,0,1-5.29,2l-.74-1.3A17.54,17.54,0,0,0,688,320.19Zm.51-7.33-.75,1.11a41.08,41.08,0,0,0-3.44-2.29l.72-1.08C686,311.13,687.83,312.37,688.52,312.86Zm4.85.47-.91.41a18.08,18.08,0,0,0-1.46-2.53l.88-.37A23.74,23.74,0,0,1,693.37,313.33Zm2.15-.8-.92.41a16.6,16.6,0,0,0-1.52-2.48l.9-.38A23,23,0,0,1,695.52,312.53Z"/><path class="cls-7" d="M701,314l.53,1.89c2.26-.43,5-1,5.52-1.09a2.9,2.9,0,0,0,.61-.19l.8.56a22.26,22.26,0,0,1-3.41,4.68l-1.13-.56a15.3,15.3,0,0,0,2.75-3.3c-.37.06-2.63.51-4.85,1,.64,2.3,1.42,5.12,1.63,5.83l.35,1.08-1.36.36a9.37,9.37,0,0,0-.24-1.17c-.21-.72-1-3.56-1.6-5.85l-3.25.66-.32-1.22a13.09,13.09,0,0,0,1.33-.17c.23,0,1-.18,1.95-.35-.24-.85-.43-1.54-.52-1.84a4,4,0,0,0-.39-1l1.38-.34C700.83,313.26,700.91,313.61,701,314Z"/><path class="cls-7" d="M713.66,315.93h8.77a15.85,15.85,0,0,0,1.73-.08v1.57c-.32,0-1-.08-1.72-.08h-8.78c-.88,0-1.73,0-2.23.08v-1.57C711.91,315.89,712.76,315.93,713.66,315.93Z"/><path class="cls-7" d="M730.27,311.82a36.55,36.55,0,0,0-.8,6.13,16.74,16.74,0,0,0,.14,2.24c.27-.72.66-1.68.93-2.33l.67.51a32.91,32.91,0,0,0-1.14,3.58,4.15,4.15,0,0,0-.08.72c0,.18,0,.4,0,.56l-1.15.08a20.07,20.07,0,0,1-.59-5.13,45.08,45.08,0,0,1,.72-6.42,7.57,7.57,0,0,0,.11-1.14l1.42.13C730.47,311,730.33,311.53,730.27,311.82ZM734,320c0,.73.52,1.44,2.7,1.44a17.58,17.58,0,0,0,4-.42l0,1.35a21.94,21.94,0,0,1-4,.33c-2.69,0-3.89-.89-3.89-2.4a9.06,9.06,0,0,1,.27-1.89l1.16.12A5.57,5.57,0,0,0,734,320Zm6.19-8v1.3a38,38,0,0,1-6.58,0V312A26.8,26.8,0,0,0,740.19,312Z"/><path class="cls-7" d="M749.31,312.56a15,15,0,0,0,2.51-.6l0,1.2a21.26,21.26,0,0,1-2.91.6,28.66,28.66,0,0,1-3.49,6.75l-1.23-.64a23.7,23.7,0,0,0,3.42-6c-.48,0-1,0-1.42,0s-1.27,0-1.88,0l-.08-1.2a17.27,17.27,0,0,0,2,.11c.57,0,1.18,0,1.81-.08a13.23,13.23,0,0,0,.49-2.77l1.41.13C749.79,310.65,749.56,311.63,749.31,312.56Zm4.38,4.19c0,.59.08,1.63.11,2.63a10.87,10.87,0,0,1,3.33,2l-.69,1.09a11.62,11.62,0,0,0-2.59-1.84c0,.25,0,.48,0,.67,0,1.28-.82,2.32-2.8,2.32-1.76,0-3.2-.72-3.2-2.3s1.39-2.4,3.2-2.4a6.75,6.75,0,0,1,1.57.16c-.07-1.32-.15-2.9-.18-4h1.25C753.68,315.68,753.68,316.17,753.69,316.75Zm-2.78,5.7c1.33,0,1.77-.7,1.77-1.59,0-.2,0-.44,0-.72a5.58,5.58,0,0,0-1.65-.24c-1.17,0-2,.55-2,1.28S749.66,322.45,750.91,322.45Zm2.33-9.2.66-1a23.71,23.71,0,0,1,3.73,2.13l-.72,1.05A18.69,18.69,0,0,0,753.24,313.25Z"/><path class="cls-7" d="M762.89,314.61c.66-1.64,2.32-3.64,4.35-3.64s3.65,2.13,3.65,5.49c0,4.45-2.78,6.41-6.75,7.13l-.75-1.16c3.47-.51,6.19-1.93,6.19-5.95,0-2.53-.86-4.36-2.54-4.36-2,0-3.86,2.92-4,5a7.3,7.3,0,0,0,0,2l-1.23.1a19.37,19.37,0,0,1-.18-2.55,40.84,40.84,0,0,1,.5-5.17c.06-.48.09-.94.12-1.37l1.41.05A30.87,30.87,0,0,0,762.89,314.61Z"/><path class="cls-7" d="M781.93,311.15c0,.21,0,.56,0,1a37.34,37.34,0,0,0,4.33-.43v1.17c-1.27.14-2.79.29-4.32.37v2.24a39.66,39.66,0,0,0,4.46-.43v1.2c-1.51.19-2.92.32-4.44.37,0,.83.08,1.69.11,2.46a12.92,12.92,0,0,1,4.68,2.5l-.74,1.14a11.56,11.56,0,0,0-3.87-2.42c0,.4,0,.73,0,1,0,1.1-.74,2.24-2.82,2.24-2.3,0-3.55-.81-3.55-2.35s1.39-2.45,3.7-2.45a8.37,8.37,0,0,1,1.34.1c0-.72,0-1.49-.06-2.18h-.91c-1.09,0-2.85-.1-4-.23v-1.2a28.31,28.31,0,0,0,4,.31h.87v-2.24H780c-1.12,0-3.09-.16-4.1-.28v-1.18a29.31,29.31,0,0,0,4.09.35h.74V311a9.14,9.14,0,0,0-.06-1H782A8,8,0,0,0,781.93,311.15Zm-2.75,11.25c.91,0,1.7-.29,1.7-1.39,0-.27,0-.66,0-1.07a6.63,6.63,0,0,0-1.55-.16c-1.52,0-2.36.59-2.36,1.32S777.59,322.4,779.18,322.4Z"/><path class="cls-7" d="M792.91,311.93c-.08,1.81-.2,5.59-.2,8,0,1.76,1.11,2.39,2.63,2.39a6.67,6.67,0,0,0,5.73-3.31l.91,1.08a8,8,0,0,1-6.69,3.54c-2.3,0-3.89-1-3.89-3.57,0-2.37.16-6.42.16-8.1a8.1,8.1,0,0,0-.13-1.63l1.62,0A12.34,12.34,0,0,0,792.91,311.93Z"/><path class="cls-7" d="M809.55,311.47c-.07.33-.15.75-.24,1.18a23.44,23.44,0,0,0,3.07-.57v1.26a31.25,31.25,0,0,1-3.33.55c-.14.7-.32,1.44-.51,2.14a49.83,49.83,0,0,1-2.5,7.33l-1.41-.48a34.93,34.93,0,0,0,2.69-7.15c.15-.53.29-1.14.42-1.72-.53,0-1,.05-1.47.05-.71,0-1.28,0-1.86-.06l0-1.25a15.64,15.64,0,0,0,1.92.11c.53,0,1.11,0,1.73-.08.11-.56.19-1.07.24-1.39a6.87,6.87,0,0,0,0-1.33l1.54.13C809.74,310.54,809.61,311.15,809.55,311.47Zm1.9,8.93c0,.75.42,1.49,2.71,1.49a15.29,15.29,0,0,0,3.12-.32l0,1.3a22.48,22.48,0,0,1-3.09.22c-2.53,0-3.9-.77-3.9-2.35a9.78,9.78,0,0,1,.24-1.89l1.2.11A5.42,5.42,0,0,0,811.45,320.4Zm2.82-5.47a24.81,24.81,0,0,1,2.77.14l0,1.22a19,19,0,0,0-2.69-.2,26.79,26.79,0,0,0-3,.16v-1.18C812.19,315,813.24,314.93,814.27,314.93Z"/><path class="cls-7" d="M825.8,311.24c-.09.47-.24,1.41-.41,2.29.75-.06,1.42-.11,1.81-.11,1.42,0,2.59.55,2.59,2.71a15.28,15.28,0,0,1-.93,5.78,2.26,2.26,0,0,1-2.34,1.34,8.55,8.55,0,0,1-1.88-.24l-.21-1.33a7.68,7.68,0,0,0,2,.32,1.32,1.32,0,0,0,1.39-.82,13.52,13.52,0,0,0,.77-4.89c0-1.48-.69-1.75-1.7-1.75-.38,0-1,0-1.73.11a32.74,32.74,0,0,1-3.36,8.63l-1.31-.51a25.5,25.5,0,0,0,3.37-8c-.84.08-1.61.18-2,.23s-1,.12-1.44.19l-.13-1.39c.5,0,.91,0,1.43,0s1.47-.1,2.43-.18a16.45,16.45,0,0,0,.42-3.49l1.49.16C825.93,310.59,825.87,310.94,825.8,311.24Zm8.63,6.49-1.25.59a18.51,18.51,0,0,0-2.85-5.79l1.17-.53A28.17,28.17,0,0,1,834.43,317.73Z"/><path class="cls-7" d="M843.79,313.71c0-1.1-.8-1.91-2.43-1.91a4.16,4.16,0,0,0-3,1.46l-.86-.8a5.3,5.3,0,0,1,4-1.86c2.25,0,3.69,1.16,3.69,3,0,2.41-3.82,2.91-3.39,5.31h-1.31C840,316.25,843.79,315.53,843.79,313.71Zm-3.64,8.1a1,1,0,0,1,1.05-1.07,1.07,1.07,0,1,1-1.05,1.07Z"/><path class="cls-4" d="M685.89,343.75a5,5,0,1,1-4.95,4.95A4.94,4.94,0,0,1,685.89,343.75Z"/><path class="cls-7" d="M698.07,343.1c0,.38-.05,1-.06,1.73a21.1,21.1,0,0,0,3.29-.64l0,1.25A31.34,31.34,0,0,1,698,346c0,.75,0,1.52,0,2.16v.56a12,12,0,0,1,3.53-.59c2.33,0,4,1.26,4,3.18s-1.21,3.17-3.41,3.7a11.83,11.83,0,0,1-2,.22l-.45-1.29a9,9,0,0,0,1.87-.11c1.41-.28,2.69-1,2.69-2.5s-1.23-2.1-2.75-2.1a10.49,10.49,0,0,0-3.49.63c0,1.36.06,2.78.06,3.47,0,1.49-.54,2-1.4,2-1.25,0-3.33-1.24-3.33-2.66s1.66-2.72,3.5-3.51v-.91c0-.64,0-1.39,0-2.09-.45,0-.85,0-1.19,0a16.44,16.44,0,0,1-2-.08l0-1.21a15,15,0,0,0,2.05.12c.37,0,.79,0,1.23,0,0-.84,0-1.54,0-1.83a8,8,0,0,0-.08-1.13h1.42C698.14,342.28,698.09,342.73,698.07,343.1Zm-1.79,10.84c.37,0,.59-.26.59-.79s0-1.66,0-2.83c-1.31.61-2.29,1.54-2.29,2.26S695.65,353.94,696.28,353.94Zm10.53-7.83-.66,1a20.71,20.71,0,0,0-3.58-2.4l.58-1A29.39,29.39,0,0,1,706.81,346.11Z"/><path class="cls-7" d="M720.39,345.84a11,11,0,0,1-3.15,3.07,21.51,21.51,0,0,0,6.21,1.68,5,5,0,0,0-.75,1.14c-.74-.11-1.46-.26-2.16-.43V356h-1.2v-.51h-6.47V356h-1.14v-4.53c-.81.25-1.63.46-2.43.64a3.83,3.83,0,0,0-.59-1A23.26,23.26,0,0,0,715,349a11.18,11.18,0,0,1-2.16-1.87,13.48,13.48,0,0,1-2.5,1.56,3.35,3.35,0,0,0-.8-.84,10.59,10.59,0,0,0,4.55-3.6l1.28.24a10.12,10.12,0,0,1-.74.94h4.73l.2-.05Zm-9.87,0h-1.14v-3h6.07V341.4h1.2v1.43h6.13v3h-1.19v-1.89H710.52Zm9.36,5.3a18,18,0,0,1-3.76-1.5,22.59,22.59,0,0,1-3.36,1.5Zm-.54,3.31v-2.32h-6.47v2.32Zm-5.64-8a9.26,9.26,0,0,0,2.44,1.93,10.39,10.39,0,0,0,2.43-2h-4.82Z"/><path class="cls-7" d="M730.36,350.67a23.65,23.65,0,0,0-1.27-2.3V356H728v-7.48a16.74,16.74,0,0,1-2,4.47,5.89,5.89,0,0,0-.6-1,17.51,17.51,0,0,0,2.43-6h-2.11v-1.11H728v-3.45h1.08v3.45h1.83V346h-1.83v1c.45.59,1.65,2.4,1.93,2.83Zm4.21,2.31c-1.28.75-2.64,1.53-3.73,2.14l-.56-1c1-.51,2.51-1.33,4-2.13Zm2.67-1.28a7.07,7.07,0,0,0,3.17,2.67,5.23,5.23,0,0,0-.77,1,8.4,8.4,0,0,1-3.55-3.75v3.09c0,.64-.13,1-.54,1.16a6.11,6.11,0,0,1-2.13.2,3.87,3.87,0,0,0-.34-1.08h1.6c.21,0,.26-.07.26-.28v-6h-4v-1h4v-1.23H731.7v-.93h3.24v-1.14h-3.7v-1h2a12.33,12.33,0,0,0-.8-1.64l.93-.31a8.83,8.83,0,0,1,1,1.84l-.29.11h2.79l-.15,0a14.34,14.34,0,0,0,.93-2l1.17.34c-.34.59-.69,1.21-1,1.69h2.11v1h-3.81v1.14h3.46v.93h-3.46v1.23h4v1h-4v.64a10.13,10.13,0,0,0,1,2.08,16.51,16.51,0,0,0,2-2.15l.91.64a21.34,21.34,0,0,1-2.18,2.18Zm-5-2.37a11.44,11.44,0,0,1,1.65,2.06L733,352a11.2,11.2,0,0,0-1.6-2.14Z"/><path class="cls-7" d="M745.48,343.82a36.55,36.55,0,0,0-.8,6.13,18.58,18.58,0,0,0,.14,2.24c.27-.72.66-1.68.93-2.33l.67.51a32.6,32.6,0,0,0-1.13,3.58,2.82,2.82,0,0,0-.08.72c0,.18,0,.4,0,.56l-1.15.08a20.07,20.07,0,0,1-.59-5.13,45.08,45.08,0,0,1,.72-6.42,7.57,7.57,0,0,0,.11-1.14l1.43.13C745.69,343,745.54,343.53,745.48,343.82Zm3.73,8.15c0,.73.53,1.44,2.7,1.44a17.51,17.51,0,0,0,4-.42l0,1.35a21.85,21.85,0,0,1-4,.33c-2.69,0-3.89-.89-3.89-2.4a8.53,8.53,0,0,1,.28-1.89l1.15.12A5.57,5.57,0,0,0,749.21,352Zm6.19-8v1.3a38,38,0,0,1-6.58,0V344A26.8,26.8,0,0,0,755.4,344Z"/><path class="cls-7" d="M773.36,341.24v1.11h-3.88v9.25H768.3V341.24Z"/><path class="cls-7" d="M777.86,345.16c0,1,0,2.47.11,3.8.26,2.67,1,4.45,2.18,4.45.82,0,1.57-1.67,2-3.27l1,1.14c-1,2.72-1.93,3.65-3,3.65-1.53,0-3-1.51-3.41-5.65-.15-1.39-.18-3.35-.18-4.28a7.68,7.68,0,0,0-.11-1.42l1.55,0A13.13,13.13,0,0,0,777.86,345.16ZM789.15,352l-1.28.52c-.29-2.89-1.25-6.17-2.79-8.05l1.25-.43A17.27,17.27,0,0,1,789.15,352Z"/><path class="cls-7" d="M793.77,345.16c0,1,0,2.47.11,3.8.26,2.67,1,4.45,2.18,4.45.81,0,1.56-1.67,2-3.27l1,1.14c-1,2.72-1.94,3.65-3,3.65-1.52,0-3-1.51-3.41-5.65-.14-1.39-.18-3.35-.18-4.28a6.91,6.91,0,0,0-.11-1.42l1.55,0A13.14,13.14,0,0,0,793.77,345.16ZM805.05,352l-1.28.52c-.29-2.89-1.25-6.17-2.78-8.05l1.24-.43A17.16,17.16,0,0,1,805.05,352Z"/><path class="cls-7" d="M811.3,342.08l1.49,0c-.08.4-.21,1.3-.32,2.42a.38.38,0,0,0,.1,0l.46.56-.72,1.12c0,.27,0,.53-.06.8,1.36-1.22,3.34-2.64,5.1-2.64,2.15,0,3.3,1.94,3.3,4.58a14.32,14.32,0,0,1-.21,2.67,11.9,11.9,0,0,1,1.79,1.57l-.68,1a12.59,12.59,0,0,0-1.43-1.41A3,3,0,0,1,817,355c-1.53,0-2.83-.65-2.83-2.26,0-1.28,1.14-2.19,2.77-2.19a5.8,5.8,0,0,1,2.34.48,17.25,17.25,0,0,0,.12-2.23c0-2-.94-3.28-2.3-3.28s-3.55,1.54-5,3c0,.74-.06,1.45-.06,2.07,0,1.46,0,2.43.06,3.86,0,.29.05.69.08,1h-1.39a9.2,9.2,0,0,0,0-.94c0-1.54,0-2.35,0-4.1,0-.16,0-.38,0-.64-.78,1.17-1.84,2.71-2.62,3.78l-.79-1.09c.9-1.12,2.74-3.62,3.54-4.88,0-.51.06-1,.11-1.55-.72.09-2.13.28-3.14.43l-.12-1.32c.35,0,.65,0,1,0s1.47-.15,2.3-.29c.05-.75.08-1.34.08-1.52A9.72,9.72,0,0,0,811.3,342.08Zm5.64,11.76a2.18,2.18,0,0,0,2.13-1.76,4.57,4.57,0,0,0-2.2-.58c-.83,0-1.58.45-1.58,1.14S816,353.84,816.94,353.84Z"/><path class="cls-7" d="M823.94,356.16v-1.1h3.87v-9.25H829v10.35Z"/><path class="cls-7" d="M846.9,344a38,38,0,0,0,4.89-.5l0,1.19a49.1,49.1,0,0,1-5.31.45A13,13,0,0,1,845,347.6a4.47,4.47,0,0,1,2.22-.59,2.07,2.07,0,0,1,2.15,1.44c1.08-.53,2.06-.92,2.89-1.3.48-.21.87-.38,1.31-.62l.53,1.2a12.84,12.84,0,0,0-1.42.51c-.9.33-2,.8-3.25,1.38,0,.92,0,2.28,0,3.07h-1.24c0-.61,0-1.65,0-2.5-1.49.79-2.53,1.63-2.53,2.69,0,1.25,1.25,1.44,2.9,1.44a28.49,28.49,0,0,0,4.37-.38l0,1.28a37.62,37.62,0,0,1-4.39.29c-2.29,0-4.13-.5-4.13-2.45s1.91-3.08,3.78-4.05a1.34,1.34,0,0,0-1.46-1,4.24,4.24,0,0,0-2.75,1.17c-.46.44-.91,1-1.46,1.67l-1.08-.8a16.86,16.86,0,0,0,3.69-4.9h-.7c-.69,0-1.75,0-2.63-.1v-1.2a24,24,0,0,0,2.71.18c.34,0,.7,0,1.06,0a8.85,8.85,0,0,0,.4-2l1.31.11A17.41,17.41,0,0,1,846.9,344Z"/><path class="cls-7" d="M697.27,375.32c0,.42-.12,1-.22,1.65a20.86,20.86,0,0,0,3.25-.21l0,1.21c-1,.09-2,.14-3.25.14h-.11c-.12.94-.24,1.95-.36,2.9h.31a23.55,23.55,0,0,0,3.33-.21l0,1.22a29.6,29.6,0,0,1-3.14.16h-.58c-.06.64-.09,1.2-.09,1.58,0,1.55.86,2.51,2.68,2.51,2.44,0,4-1.07,4-2.72a4.45,4.45,0,0,0-1.74-3.26l1.4-.29a5.23,5.23,0,0,1,1.64,3.7c0,2.38-2.12,3.82-5.29,3.82-2.17,0-3.92-.94-3.92-3.57,0-.45,0-1.09.13-1.84a15.59,15.59,0,0,1-3.34-.57l.06-1.24a14.4,14.4,0,0,0,3.41.66c.1-.95.22-1.95.35-2.9a21,21,0,0,1-3.44-.56l.06-1.17a16,16,0,0,0,3.51.59c.08-.63.14-1.21.18-1.68a6.12,6.12,0,0,0,0-1.13l1.44.09A10.18,10.18,0,0,0,697.27,375.32Z"/><path class="cls-7" d="M709.51,381.65a7.68,7.68,0,0,1,5.22-2c2.45,0,4.08,1.48,4.08,3.35,0,2.87-2.53,4.8-8.48,4.31L710,386c5,.63,7.52-.83,7.52-3,0-1.28-1.19-2.2-2.82-2.2a6.29,6.29,0,0,0-5,2.15,2.36,2.36,0,0,0-.48.8l-1.19-.29a57.93,57.93,0,0,0,.82-6.5l1.35.18C710,378.24,709.69,380.62,709.51,381.65Zm7.22-6.18-.3,1.23c-1.52-.21-5-.91-6.21-1.25l.32-1.21A44,44,0,0,0,716.73,375.47Z"/><path class="cls-7" d="M724.25,377.16c0,1,0,2.47.11,3.8.26,2.67,1,4.45,2.18,4.45.81,0,1.57-1.67,2-3.27l1,1.14c-1,2.72-1.94,3.65-3,3.65-1.52,0-3-1.51-3.41-5.65-.14-1.39-.17-3.35-.17-4.28a6.93,6.93,0,0,0-.12-1.42l1.56,0A11.3,11.3,0,0,0,724.25,377.16ZM735.53,384l-1.28.52c-.28-2.89-1.25-6.17-2.78-8.05l1.25-.43A17.26,17.26,0,0,1,735.53,384Z"/><path class="cls-7" d="M745.61,375.15c0,.21,0,.56,0,1a37.29,37.29,0,0,0,4.34-.43v1.17c-1.27.14-2.79.29-4.33.37v2.24a39.84,39.84,0,0,0,4.47-.43v1.2c-1.51.19-2.92.32-4.44.37,0,.83.08,1.69.11,2.46a12.92,12.92,0,0,1,4.68,2.5l-.74,1.14a11.56,11.56,0,0,0-3.87-2.42c0,.4,0,.73,0,1,0,1.1-.74,2.24-2.82,2.24-2.3,0-3.55-.81-3.55-2.35s1.39-2.45,3.7-2.45a8.37,8.37,0,0,1,1.34.1c0-.72,0-1.49-.06-2.18h-.92c-1.08,0-2.84-.1-4-.23v-1.2a28.31,28.31,0,0,0,4,.31h.86v-2.24h-.7c-1.12,0-3.09-.16-4.1-.28v-1.18a29.31,29.31,0,0,0,4.09.35h.74V375a9.14,9.14,0,0,0-.06-1h1.36A8,8,0,0,0,745.61,375.15Zm-2.75,11.25c.91,0,1.69-.29,1.69-1.39,0-.27,0-.66,0-1.07a6.69,6.69,0,0,0-1.55-.16c-1.52,0-2.36.59-2.36,1.32S741.27,386.4,742.86,386.4Z"/><path class="cls-7" d="M756.59,375.93c-.08,1.81-.2,5.59-.2,8,0,1.76,1.11,2.39,2.63,2.39a6.67,6.67,0,0,0,5.73-3.31l.91,1.08A8,8,0,0,1,759,387.6c-2.3,0-3.89-1-3.89-3.57,0-2.37.16-6.42.16-8.1a8.1,8.1,0,0,0-.13-1.63l1.62,0A12.34,12.34,0,0,0,756.59,375.93Z"/><path class="cls-7" d="M773.23,375.47c-.07.33-.15.75-.24,1.18a23.44,23.44,0,0,0,3.07-.57v1.26a31.25,31.25,0,0,1-3.33.55c-.14.7-.32,1.44-.51,2.14a49.83,49.83,0,0,1-2.5,7.33l-1.41-.48a34.93,34.93,0,0,0,2.69-7.15c.14-.53.29-1.14.42-1.72-.53,0-1,.05-1.48.05-.7,0-1.28,0-1.85-.06l-.05-1.25a15.64,15.64,0,0,0,1.92.11c.53,0,1.11,0,1.73-.08.11-.56.19-1.07.24-1.39a6.87,6.87,0,0,0,.05-1.33l1.53.13C773.42,374.54,773.29,375.15,773.23,375.47Zm1.9,8.93c0,.75.42,1.49,2.71,1.49a15.29,15.29,0,0,0,3.12-.32l-.05,1.3a22.48,22.48,0,0,1-3.09.22c-2.53,0-3.91-.77-3.91-2.35a10.63,10.63,0,0,1,.24-1.89l1.2.11A5.81,5.81,0,0,0,775.13,384.4Zm2.82-5.47a24.81,24.81,0,0,1,2.77.14l0,1.22a18.84,18.84,0,0,0-2.68-.2,26.79,26.79,0,0,0-3,.16v-1.18C775.87,379,776.92,378.93,778,378.93Z"/><path class="cls-7" d="M789.48,375.24c-.09.47-.24,1.41-.41,2.29.75-.06,1.42-.11,1.81-.11,1.42,0,2.59.55,2.59,2.71a15.28,15.28,0,0,1-.93,5.78,2.26,2.26,0,0,1-2.34,1.34,8.64,8.64,0,0,1-1.89-.24l-.2-1.33a7.68,7.68,0,0,0,2,.32,1.32,1.32,0,0,0,1.39-.82,13.52,13.52,0,0,0,.77-4.89c0-1.48-.69-1.75-1.7-1.75-.38,0-1,0-1.73.11a32.74,32.74,0,0,1-3.36,8.63l-1.31-.51a25.5,25.5,0,0,0,3.37-8c-.84.08-1.61.18-2,.23s-1,.12-1.44.19l-.13-1.39c.5,0,.91,0,1.43,0s1.47-.1,2.43-.18a16.45,16.45,0,0,0,.42-3.49l1.49.16C789.61,374.59,789.55,374.94,789.48,375.24Zm8.63,6.49-1.25.59a18.51,18.51,0,0,0-2.85-5.79l1.17-.53A28.17,28.17,0,0,1,798.11,381.73Z"/><path class="cls-7" d="M807.47,377.71c0-1.1-.8-1.91-2.43-1.91a4.16,4.16,0,0,0-3,1.46l-.86-.8a5.3,5.3,0,0,1,4.05-1.86c2.25,0,3.69,1.16,3.69,3,0,2.41-3.82,2.91-3.39,5.31h-1.31C803.69,380.25,807.47,379.53,807.47,377.71Zm-3.64,8.1a1,1,0,0,1,1-1.07,1.07,1.07,0,1,1-1,1.07Z"/><path class="cls-3" d="M364.3,81a5,5,0,1,1-4.95,5A4.94,4.94,0,0,1,364.3,81Z"/><path class="cls-7" d="M373.74,84.57c-.26,2.14-.75,4.65-1.89,6.19l-1.07-.66a12.1,12.1,0,0,0,1.81-5.76Zm2.72-1.52v8c0,.74.18.88,1.06.88h2.94c1,0,1.11-.58,1.23-3.35a3,3,0,0,0,1.11.55c-.16,3-.54,3.89-2.27,3.89h-3.11c-1.7,0-2.16-.43-2.16-2v-8Zm-.34-4.36a27.45,27.45,0,0,1,5.48,2.64l-.75,1a24.77,24.77,0,0,0-5.48-2.77Zm6.79,5.12a16.82,16.82,0,0,1,3,5.91l-1.17.56a17.78,17.78,0,0,0-2.88-5.94Z"/><path class="cls-7" d="M393.71,80.47c-.1.46-.24,1.41-.42,2.29.75-.07,1.43-.12,1.81-.12,1.43,0,2.59.55,2.59,2.71a15.25,15.25,0,0,1-.92,5.78,2.26,2.26,0,0,1-2.34,1.34,8.56,8.56,0,0,1-1.89-.24l-.21-1.33a7.75,7.75,0,0,0,2,.33,1.32,1.32,0,0,0,1.39-.82,13.4,13.4,0,0,0,.77-4.9c0-1.47-.69-1.74-1.7-1.74-.38,0-1,0-1.72.11a33.36,33.36,0,0,1-3.36,8.63L388.36,92a25.35,25.35,0,0,0,3.38-8c-.85.08-1.62.17-2,.22l-1.44.19L388.14,83a13.45,13.45,0,0,0,1.42,0c.53,0,1.48-.1,2.44-.18a17.1,17.1,0,0,0,.41-3.49l1.49.16C393.84,79.81,393.77,80.16,393.71,80.47ZM402.34,87l-1.25.59a19.06,19.06,0,0,0-2.85-5.79l1.17-.53A29,29,0,0,1,402.34,87Z"/><path class="cls-7" d="M406.54,86.87a7.71,7.71,0,0,1,5.22-2c2.45,0,4.08,1.47,4.08,3.34,0,2.87-2.53,4.81-8.48,4.31L407,91.26c5.06.62,7.53-.84,7.53-3,0-1.28-1.19-2.19-2.82-2.19a6.28,6.28,0,0,0-5,2.14,2.57,2.57,0,0,0-.48.8l-1.19-.28a58.22,58.22,0,0,0,.82-6.5l1.34.17C407,83.46,406.72,85.85,406.54,86.87Zm7.22-6.18-.31,1.24c-1.52-.21-5-.92-6.21-1.25l.32-1.22A44.43,44.43,0,0,0,413.76,80.69Z"/><path class="cls-7" d="M433.57,78.47v1.1h-3.88v9.25h-1.18V78.47Z"/><path class="cls-7" d="M442,80.05c-.06.34-.12.76-.19,1.22a32.58,32.58,0,0,0,5.62-.69l0,1.19a51.45,51.45,0,0,1-5.77.6c-.08.63-.12,1.3-.17,2a10.44,10.44,0,0,1,2.69-.4,5.62,5.62,0,0,1,.59,0s0-.1.05-.16a4,4,0,0,0,.17-.93l1.27.32c-.1.22-.24.66-.32.91,0,0,0,0,0,.07a3.91,3.91,0,0,1,3.19,3.76c0,2.3-1.52,4.29-5.24,4.88l-.68-1.07c2.89-.31,4.68-1.8,4.68-3.88a2.88,2.88,0,0,0-2.3-2.73,13.3,13.3,0,0,1-3.57,5.2c.13.46.26.9.38,1.3l-1.15.35c-.09-.27-.17-.58-.25-.9a5.49,5.49,0,0,1-2.72.88,1.81,1.81,0,0,1-1.89-2c0-2.06,1.79-4.16,4-5.18,0-.8.11-1.6.17-2.35h-1c-.69,0-1.94-.06-2.6-.11l0-1.2a23.55,23.55,0,0,0,2.64.21c.37,0,.72,0,1.09,0,0-.46.1-.88.13-1.23a5.44,5.44,0,0,0,0-.77l1.35,0A5.9,5.9,0,0,0,442,80.05Zm-3.48,10.68a4,4,0,0,0,2.2-.85,19.77,19.77,0,0,1-.38-3.63V86c-1.55.88-2.74,2.46-2.74,3.78C437.64,90.39,438,90.73,438.56,90.73Zm3.21-1.68a10.65,10.65,0,0,0,2.72-4.1h-.27a7.82,7.82,0,0,0-2.7.51c0,.23,0,.43,0,.66A17.25,17.25,0,0,0,441.77,89.05Z"/><path class="cls-7" d="M454.94,83.83c.66-1.63,2.32-3.63,4.35-3.63s3.65,2.13,3.65,5.49c0,4.45-2.78,6.4-6.75,7.12l-.75-1.15c3.47-.52,6.19-1.94,6.19-6,0-2.53-.86-4.35-2.54-4.35-2,0-3.86,2.91-4,5a7.3,7.3,0,0,0,0,2l-1.23.09a19.19,19.19,0,0,1-.18-2.54,40.84,40.84,0,0,1,.5-5.17c.06-.48.09-.95.12-1.38l1.41,0A31.1,31.1,0,0,0,454.94,83.83Z"/><path class="cls-7" d="M471.92,80.53c-.1.47-.24,1.41-.42,2.28.75-.07,1.41-.12,1.79-.12,1.44,0,2.61.55,2.61,2.72a15.45,15.45,0,0,1-.93,5.78,2.24,2.24,0,0,1-2.33,1.33,9.81,9.81,0,0,1-1.89-.22L470.54,91a7.69,7.69,0,0,0,1.95.34,1.33,1.33,0,0,0,1.41-.83,13.61,13.61,0,0,0,.75-4.9c0-1.46-.67-1.73-1.69-1.73-.39,0-1,0-1.72.11a32.85,32.85,0,0,1-3.37,8.63l-1.3-.53a25.57,25.57,0,0,0,3.38-8l-2,.21-1.45.19-.14-1.38c.51,0,.93,0,1.44,0s1.46-.09,2.43-.17a17.86,17.86,0,0,0,.42-3.49l1.47.14C472,79.88,472,80.21,471.92,80.53Zm8.61,6.58-1.23.59A18.74,18.74,0,0,0,476.43,82l1.17-.53A27.55,27.55,0,0,1,480.53,87.11ZM479.1,81.3l-.88.38a20,20,0,0,0-1.29-2.22l.86-.35A21.48,21.48,0,0,1,479.1,81.3Zm1.8-.66L480,81a17.49,17.49,0,0,0-1.33-2.21l.85-.37A23.57,23.57,0,0,1,480.9,80.64Z"/><path class="cls-7" d="M488.43,84.31c1.5-.91,3.23-1.76,4.11-2.24a8.67,8.67,0,0,0,1.14-.75l.7,1.13c-.37.23-.77.44-1.23.68a52.94,52.94,0,0,0-4.87,2.65c-1.48,1-2.38,2-2.38,3.24s1.27,2.16,3.79,2.16a23.85,23.85,0,0,0,5.13-.55v1.43a31.36,31.36,0,0,1-5.06.4c-3,0-5.19-.9-5.19-3.3,0-1.65,1.06-2.94,2.77-4.15A52.7,52.7,0,0,1,485,80.08l1.26-.52A34.66,34.66,0,0,0,488.43,84.31Z"/><path class="cls-7" d="M504.3,84.37a15.09,15.09,0,0,0-4.37.8c-.5.16-1,.34-1.34.5l-.42-1.49a10,10,0,0,0,1.47-.24,21.56,21.56,0,0,1,4.79-.77c2.27,0,4,1.27,4,3.56,0,3.47-3.12,5.42-7.27,6l-.72-1.22c3.89-.48,6.63-2,6.63-4.88C507,85.33,506,84.37,504.3,84.37Zm2.82-4.16-.19,1.23c-1.78-.11-5-.43-6.82-.75l.21-1.21A42.47,42.47,0,0,0,507.12,80.21Z"/><path class="cls-7" d="M511.35,93.39V92.28h3.88V83h1.18V93.39Z"/><path class="cls-7" d="M534.32,81.2a39.91,39.91,0,0,0,4.88-.49l0,1.18a44.51,44.51,0,0,1-5.31.45,13,13,0,0,1-1.44,2.48,4.64,4.64,0,0,1,2.22-.59,2.07,2.07,0,0,1,2.15,1.44c1.09-.53,2.06-.91,2.89-1.3a13.33,13.33,0,0,0,1.32-.62l.53,1.2a14.46,14.46,0,0,0-1.43.51c-.89.34-2,.8-3.25,1.38,0,.93,0,2.29,0,3.07h-1.23c0-.61.05-1.65.05-2.49-1.49.78-2.53,1.63-2.53,2.68,0,1.25,1.24,1.45,2.89,1.45a28.55,28.55,0,0,0,4.37-.39l0,1.28a37.44,37.44,0,0,1-4.38.29c-2.29,0-4.13-.5-4.13-2.45s1.9-3.07,3.77-4a1.33,1.33,0,0,0-1.45-1,4.19,4.19,0,0,0-2.76,1.17A20.7,20.7,0,0,0,530,88.07l-1.09-.8a16.8,16.8,0,0,0,3.7-4.9h-.71c-.69,0-1.74,0-2.62-.09v-1.2a23.85,23.85,0,0,0,2.7.17h1.06a8.33,8.33,0,0,0,.4-2l1.31.11A16.91,16.91,0,0,1,534.32,81.2Z"/><path class="cls-7" d="M374.73,111a21.88,21.88,0,0,1-1.63,3.29v10.89H372V116a16.6,16.6,0,0,1-1.78,2.11,6.47,6.47,0,0,0-.67-1.15,17.83,17.83,0,0,0,4.1-6.31Zm8.84,14.24a11.54,11.54,0,0,0-.56-1.39c-3.17.29-6.5.56-8.8.74l-.23-1.2,1.76-.12a36.92,36.92,0,0,0,1.76-5.5h-3.34v-1.16h10.39v1.16h-5.67c-.54,1.76-1.25,3.87-1.9,5.42,1.68-.11,3.6-.25,5.49-.41a23.6,23.6,0,0,0-1.69-2.63l1-.46a19.32,19.32,0,0,1,2.88,5Zm.11-12.24h-8.32v-1.14h8.32Z"/><path class="cls-7" d="M396.18,116.68c-.61.56-2.42,2.24-3,2.85a2.61,2.61,0,0,1,.62,0c.63.06,1,.5,1.22,1.15.14.47.37,1.27.53,1.79s.57.87,1.39.87a13.84,13.84,0,0,0,3-.32l-.08,1.34a22.4,22.4,0,0,1-3,.24c-1.28,0-2.08-.3-2.41-1.36-.16-.48-.4-1.42-.55-1.89a1,1,0,0,0-1-.84,1.72,1.72,0,0,0-1.19.57,45.51,45.51,0,0,0-3.25,3.57l-1.21-.85c.19-.17.48-.41.8-.72.64-.65,5-5,6.58-6.59-1.27.08-4,.3-4.93.38-.53,0-1,.1-1.3.16l-.11-1.41a11.28,11.28,0,0,0,1.36,0c.91,0,4.64-.28,5.84-.42a3.13,3.13,0,0,0,.77-.18l.77.87A8.13,8.13,0,0,0,396.18,116.68Zm.56-4.45-.18,1.18c-1.6-.14-4.4-.51-6.35-.86l.2-1.17A55.06,55.06,0,0,0,396.74,112.23Z"/><path class="cls-7" d="M409.87,112.37c0,.21,0,.56,0,1a42.31,42.31,0,0,0,4.33-.43v1.17c-1.27.14-2.79.28-4.32.36v2.24a37.66,37.66,0,0,0,4.46-.43v1.2c-1.51.19-2.92.32-4.44.37,0,.83.08,1.7.11,2.47a12.69,12.69,0,0,1,4.68,2.49l-.74,1.14a11.72,11.72,0,0,0-3.87-2.42c0,.4,0,.74,0,1,0,1.11-.74,2.25-2.82,2.25-2.3,0-3.55-.82-3.55-2.36s1.39-2.45,3.7-2.45a9.71,9.71,0,0,1,1.34.1c0-.72-.05-1.49-.06-2.18h-.92c-1.08,0-2.84-.09-4-.22v-1.2a29.8,29.8,0,0,0,4,.3h.87V114.5H408c-1.12,0-3.09-.16-4.1-.27V113a27.87,27.87,0,0,0,4.09.36h.74v-1.14a9.32,9.32,0,0,0-.06-1H410A8.32,8.32,0,0,0,409.87,112.37Zm-2.75,11.26c.91,0,1.7-.29,1.7-1.4,0-.27,0-.65,0-1.07a7.28,7.28,0,0,0-1.55-.16c-1.52,0-2.36.59-2.36,1.33S405.53,123.63,407.12,123.63Z"/><path class="cls-7" d="M420.85,113.16c-.08,1.81-.19,5.58-.19,8,0,1.76,1.1,2.38,2.62,2.38A6.67,6.67,0,0,0,429,120.2l.91,1.09a8,8,0,0,1-6.69,3.54c-2.3,0-3.89-1-3.89-3.57,0-2.37.16-6.42.16-8.1a8.2,8.2,0,0,0-.13-1.64l1.62,0A12.65,12.65,0,0,0,420.85,113.16Z"/><path class="cls-7" d="M437.49,112.69l-.24,1.19a23.45,23.45,0,0,0,3.07-.58v1.27a31.27,31.27,0,0,1-3.33.54c-.14.7-.32,1.44-.51,2.14a50,50,0,0,1-2.5,7.34l-1.41-.49a34.49,34.49,0,0,0,2.69-7.15c.15-.53.29-1.14.42-1.71-.53,0-1,.05-1.47.05-.71,0-1.28,0-1.86-.07L432.3,114a14.05,14.05,0,0,0,1.92.12c.53,0,1.11,0,1.73-.08.11-.57.19-1.08.24-1.4a6.16,6.16,0,0,0,.05-1.33l1.54.13C437.68,111.76,437.55,112.37,437.49,112.69Zm1.9,8.93c0,.76.42,1.49,2.71,1.49a15.29,15.29,0,0,0,3.12-.32l-.05,1.3a21,21,0,0,1-3.09.22c-2.53,0-3.9-.76-3.9-2.35a9.88,9.88,0,0,1,.24-1.89l1.2.11A5.48,5.48,0,0,0,439.39,121.62Zm2.82-5.47a27.46,27.46,0,0,1,2.77.14l0,1.22a20.64,20.64,0,0,0-2.69-.19,26.79,26.79,0,0,0-3,.16v-1.19C440.13,116.21,441.18,116.15,442.21,116.15Z"/><path class="cls-7" d="M453.74,112.47c-.09.46-.24,1.41-.41,2.29.75-.07,1.42-.12,1.81-.12,1.42,0,2.59.55,2.59,2.71a15.25,15.25,0,0,1-.93,5.78,2.25,2.25,0,0,1-2.34,1.34,8.55,8.55,0,0,1-1.88-.24l-.21-1.33a7.75,7.75,0,0,0,2,.33,1.32,1.32,0,0,0,1.39-.82,13.62,13.62,0,0,0,.77-4.9c0-1.47-.69-1.74-1.7-1.74-.38,0-1,0-1.73.11a33,33,0,0,1-3.36,8.63L448.4,124a25.54,25.54,0,0,0,3.37-8c-.84.08-1.61.17-2,.22l-1.44.19-.13-1.39a13.64,13.64,0,0,0,1.43,0c.53,0,1.47-.1,2.43-.18a16.45,16.45,0,0,0,.42-3.49l1.49.16C453.87,111.81,453.81,112.16,453.74,112.47Zm8.63,6.48-1.25.59a18.62,18.62,0,0,0-2.85-5.79l1.17-.53A28.43,28.43,0,0,1,462.37,119Z"/><path class="cls-7" d="M471.73,114.93c0-1.1-.8-1.9-2.43-1.9a4.12,4.12,0,0,0-3,1.46l-.86-.81a5.29,5.29,0,0,1,4-1.85c2.25,0,3.69,1.15,3.69,3,0,2.42-3.82,2.91-3.39,5.32h-1.31C468,117.48,471.73,116.76,471.73,114.93Zm-3.64,8.1a1,1,0,0,1,1.05-1.07,1.07,1.07,0,1,1-1.05,1.07Z"/><path class="cls-3" d="M364.3,145a5,5,0,1,1-4.95,5A4.94,4.94,0,0,1,364.3,145Z"/><path class="cls-7" d="M376.48,144.32c0,.39-.05,1-.07,1.73a21.24,21.24,0,0,0,3.3-.64l0,1.25a28.31,28.31,0,0,1-3.36.56c0,.75,0,1.52,0,2.16v.56a12.23,12.23,0,0,1,3.52-.59c2.34,0,4,1.26,4,3.19s-1.22,3.17-3.41,3.69a12,12,0,0,1-2,.23l-.44-1.3a7.84,7.84,0,0,0,1.87-.11c1.41-.27,2.69-1,2.69-2.5s-1.24-2.1-2.76-2.1a10.54,10.54,0,0,0-3.49.63c0,1.36.07,2.78.07,3.47,0,1.49-.55,2-1.41,2-1.25,0-3.33-1.23-3.33-2.66s1.66-2.72,3.51-3.5v-.91c0-.64,0-1.4,0-2.1-.45,0-.85.05-1.18.05a18.54,18.54,0,0,1-2-.08l0-1.22a15.13,15.13,0,0,0,2.05.13c.36,0,.78,0,1.23,0,0-.83,0-1.54,0-1.82a8.16,8.16,0,0,0-.08-1.14h1.43A8.7,8.7,0,0,0,376.48,144.32Zm-1.8,10.84c.37,0,.6-.26.6-.78s0-1.67,0-2.84c-1.31.61-2.29,1.54-2.29,2.26S374.06,155.16,374.68,155.16Zm10.54-7.83-.66,1A19.88,19.88,0,0,0,381,146l.58-1A28.43,28.43,0,0,1,385.22,147.33Z"/><path class="cls-7" d="M398.8,147.06a11.16,11.16,0,0,1-3.15,3.08,21.51,21.51,0,0,0,6.21,1.68,4.48,4.48,0,0,0-.76,1.13c-.73-.11-1.45-.25-2.16-.43v4.67h-1.2v-.51h-6.46v.53h-1.14v-4.53c-.82.26-1.63.46-2.43.64a4.19,4.19,0,0,0-.6-1,22.56,22.56,0,0,0,6.33-2.1,10.32,10.32,0,0,1-2.16-1.87,13.85,13.85,0,0,1-2.5,1.57,3.8,3.8,0,0,0-.8-.85,10.61,10.61,0,0,0,4.54-3.6l1.28.24a9.13,9.13,0,0,1-.73.94h4.72l.21,0Zm-9.88,0h-1.13v-3h6.06v-1.42h1.2v1.42h6.13v3H400v-1.89H388.92Zm9.37,5.29a18.08,18.08,0,0,1-3.77-1.5,21.2,21.2,0,0,1-3.36,1.5Zm-.55,3.32v-2.32h-6.46v2.32Zm-5.63-8a8.88,8.88,0,0,0,2.43,1.94,10.64,10.64,0,0,0,2.43-2h-4.81Z"/><path class="cls-7" d="M408.76,151.9a24.25,24.25,0,0,0-1.26-2.31v7.62h-1.09v-7.48a16.93,16.93,0,0,1-2,4.47,7.05,7.05,0,0,0-.61-1,17.37,17.37,0,0,0,2.43-6h-2.11v-1.1h2.24v-3.46h1.09v3.46h1.83v1.1H407.5v1c.45.59,1.65,2.4,1.92,2.84Zm4.21,2.3c-1.28.75-2.64,1.54-3.72,2.15l-.57-1c1-.51,2.52-1.33,4-2.13Zm2.68-1.28a7,7,0,0,0,3.17,2.67,5.15,5.15,0,0,0-.77,1,8.32,8.32,0,0,1-3.55-3.74v3.09c0,.64-.13,1-.55,1.15a6.05,6.05,0,0,1-2.13.21,3.91,3.91,0,0,0-.33-1.09c.7,0,1.39,0,1.6,0s.25-.07.25-.27v-6h-4v-1h4v-1.23h-3.23v-.93h3.23V145.6h-3.7v-1h2a12,12,0,0,0-.81-1.65l.93-.3a8.16,8.16,0,0,1,1,1.84l-.28.11h2.78l-.14,0a13.1,13.1,0,0,0,.92-2l1.17.33c-.33.59-.68,1.22-1,1.7h2.11v1h-3.8v1.14H418v.93H414.5v1.23h4v1h-4v.64a9.63,9.63,0,0,0,1,2.08,17.08,17.08,0,0,0,2-2.14l.92.64a21.19,21.19,0,0,1-2.18,2.17Zm-5-2.37a11,11,0,0,1,1.65,2.07l-.86.6a12.49,12.49,0,0,0-1.6-2.14Z"/><path class="cls-7" d="M428.37,156.51l-.76-1.19a12.37,12.37,0,0,0,1.38-.21,4.83,4.83,0,0,0,4.07-4.75,4.46,4.46,0,0,0-4.28-4.64,31.5,31.5,0,0,1-1,4.61c-1,3.29-2.24,5-3.73,5s-2.85-1.64-2.85-4.28a6.82,6.82,0,0,1,7-6.51,5.8,5.8,0,0,1,6.13,5.89C434.37,153.77,432.16,156,428.37,156.51Zm-4.23-2.68c.75,0,1.6-1.07,2.42-3.77a25.54,25.54,0,0,0,.89-4.33,5.59,5.59,0,0,0-5,5.19C422.49,152.94,423.42,153.83,424.14,153.83Z"/><path class="cls-7" d="M451.46,155.37v1.17H437.21v-1.17h8.08a53.43,53.43,0,0,0,2.17-7.72l1.34.26a74.37,74.37,0,0,1-2.27,7.46ZM451,146.9H437.74v-1.15h5.94v-3.12h1.21v3.12H451Zm-9.63,7.67a23.92,23.92,0,0,0-1.48-6.53l1.11-.29a24,24,0,0,1,1.57,6.53Z"/><path class="cls-7" d="M458.88,152c-1.62.81-3.37,1.66-4.71,2.3l-.46-1.17c.61-.25,1.36-.57,2.17-.94v-5H454v-1.12h1.87v-3.33H457v3.33h1.73v1.12H457v4.5l1.63-.74Zm3-1.84a10.78,10.78,0,0,1-.68,1.12h6.88s0,.32-.05.48c-.24,3.29-.5,4.54-.94,5a1.32,1.32,0,0,1-.9.4c-.35,0-.94,0-1.58,0a2,2,0,0,0-.28-1c.6.05,1.12.07,1.36.07s.37,0,.48-.18c.28-.29.52-1.3.72-3.81h-1.24a11.14,11.14,0,0,1-3.27,5,3.66,3.66,0,0,0-.85-.69,9.31,9.31,0,0,0,3.12-4.32h-1.55a12.13,12.13,0,0,1-3.89,4.32,3.46,3.46,0,0,0-.78-.74,10.62,10.62,0,0,0,3.6-3.58h-1.62a11,11,0,0,1-2.08,1.82,5.32,5.32,0,0,0-.82-.73,9,9,0,0,0,3.17-3.2h-2.24v-1h10v1Zm5.45-1.91H460v-5.17h7.32ZM466.19,144h-5.12v1.26h5.12Zm0,2.1h-5.12v1.28h5.12Z"/><path class="cls-7" d="M473.71,145a36.67,36.67,0,0,0-.8,6.14,18.84,18.84,0,0,0,.14,2.24c.27-.72.66-1.68.93-2.34l.67.51a32.68,32.68,0,0,0-1.13,3.59,2.78,2.78,0,0,0-.08.72c0,.17,0,.4,0,.56l-1.15.08a20.22,20.22,0,0,1-.59-5.14,45.44,45.44,0,0,1,.72-6.42,7.45,7.45,0,0,0,.11-1.14L474,144C473.92,144.24,473.77,144.76,473.71,145Zm3.73,8.15c0,.74.53,1.44,2.7,1.44a18.11,18.11,0,0,0,4-.41l0,1.34a21.72,21.72,0,0,1-4,.34c-2.69,0-3.89-.9-3.89-2.4a8.89,8.89,0,0,1,.27-1.89l1.16.11A5.57,5.57,0,0,0,477.44,153.19Zm6.19-8v1.3a38,38,0,0,1-6.58,0V145.2A27.31,27.31,0,0,0,483.63,145.19Z"/><path class="cls-7" d="M492.75,145.78a15.76,15.76,0,0,0,2.51-.59l0,1.2a20.71,20.71,0,0,1-2.91.59,28.18,28.18,0,0,1-3.49,6.76l-1.23-.64a24,24,0,0,0,3.43-6c-.49,0-1,0-1.43,0s-1.26,0-1.87,0l-.08-1.2a15.07,15.07,0,0,0,2,.11c.58,0,1.18,0,1.81-.08a13.82,13.82,0,0,0,.5-2.77l1.4.13C493.23,143.88,493,144.85,492.75,145.78Zm4.39,4.2c0,.59.08,1.63.11,2.62a11.33,11.33,0,0,1,3.33,2l-.69,1.09a11.86,11.86,0,0,0-2.59-1.84c0,.26,0,.48,0,.67,0,1.29-.81,2.33-2.8,2.33-1.76,0-3.2-.73-3.2-2.31s1.39-2.4,3.2-2.4a7.33,7.33,0,0,1,1.57.16c-.07-1.31-.15-2.9-.18-4h1.25C497.12,148.9,497.12,149.4,497.14,150Zm-2.79,5.69c1.33,0,1.78-.7,1.78-1.58,0-.21,0-.45,0-.72a5.53,5.53,0,0,0-1.65-.24c-1.17,0-2,.54-2,1.28S493.1,155.67,494.35,155.67Zm2.34-9.2.65-1a24.89,24.89,0,0,1,3.73,2.13l-.72,1.06A18.46,18.46,0,0,0,496.69,146.47Z"/><path class="cls-7" d="M506.33,147.83c.66-1.63,2.32-3.63,4.36-3.63s3.65,2.13,3.65,5.49c0,4.45-2.79,6.4-6.76,7.12l-.75-1.15c3.47-.52,6.19-1.94,6.19-6,0-2.53-.86-4.35-2.54-4.35-2,0-3.86,2.91-4.05,5a7.3,7.3,0,0,0,0,2l-1.23.09a19.19,19.19,0,0,1-.18-2.54,42.77,42.77,0,0,1,.5-5.17c.06-.48.09-1,.13-1.38l1.41,0A29.81,29.81,0,0,0,506.33,147.83Z"/><path class="cls-7" d="M377.22,174.6a20.36,20.36,0,0,0,6.94,5.9,5.44,5.44,0,0,0-.78,1.06,23.78,23.78,0,0,1-6.69-5.8,21.35,21.35,0,0,1-6.55,5.88,4.81,4.81,0,0,0-.74-.95A19,19,0,0,0,376,174.6Zm.09,13.11h6.24v1.08H370v-1.08h6.06V185.1h-4.76V184h4.76v-2.5h-4v-1.07h9.5v1.07h-4.24V184h4.85v1.06h-4.85Z"/><path class="cls-7" d="M400,178.1s0,.45,0,.63c-.36,6.56-.69,8.94-1.4,9.74a1.72,1.72,0,0,1-1.36.64,20.82,20.82,0,0,1-2.56,0,2.52,2.52,0,0,0-.4-1.22c1.09.09,2.11.11,2.51.11a.93.93,0,0,0,.74-.24c.58-.54.93-2.8,1.23-8.43H393.3a11.82,11.82,0,0,1-5.93,10,4.11,4.11,0,0,0-.91-.95,10.78,10.78,0,0,0,5.6-9.07h-5.12V178.1h5.19v-3.46h1.23v3.46Z"/><path class="cls-7" d="M409.05,177.2a39.88,39.88,0,0,0,4.89-.49l0,1.18a44.51,44.51,0,0,1-5.31.45,13,13,0,0,1-1.44,2.48,4.58,4.58,0,0,1,2.22-.59,2.07,2.07,0,0,1,2.15,1.44c1.08-.53,2.06-.91,2.89-1.3a14.49,14.49,0,0,0,1.32-.62l.52,1.2c-.41.11-1,.34-1.42.51-.9.34-2,.8-3.25,1.38,0,.93,0,2.29,0,3.07h-1.23c0-.61,0-1.65,0-2.49-1.49.78-2.53,1.63-2.53,2.68,0,1.25,1.25,1.45,2.9,1.45a28.55,28.55,0,0,0,4.37-.39l0,1.28a37.62,37.62,0,0,1-4.39.29c-2.29,0-4.13-.5-4.13-2.45s1.91-3.07,3.78-4.05a1.34,1.34,0,0,0-1.46-1,4.19,4.19,0,0,0-2.75,1.17c-.46.43-.91,1-1.46,1.66l-1.08-.8a16.73,16.73,0,0,0,3.69-4.9h-.7c-.69,0-1.74,0-2.63-.09v-1.2a23.88,23.88,0,0,0,2.71.17h1.06a8.33,8.33,0,0,0,.4-2l1.31.11A17.32,17.32,0,0,1,409.05,177.2Z"/><path class="cls-7" d="M429.2,180.12a9.63,9.63,0,0,0,4.18,5.26,4.64,4.64,0,0,0-.85,1,11.2,11.2,0,0,1-4.51-6.24h-6a10.79,10.79,0,0,1-2.53,6.45,4.57,4.57,0,0,0-.91-.9c2.06-2.19,2.3-5.25,2.3-7.5v-2.9H431.6v4.85Zm-6.93,5.74a40.68,40.68,0,0,1,7.78,2.41l-.66,1a38.9,38.9,0,0,0-7.71-2.54Zm-.21-7.68c0,.26,0,.51,0,.8h8.37V176.4h-8.36Zm1.65,3.76a23.21,23.21,0,0,1,4.8,1.72l-.61,1a25,25,0,0,0-4.75-1.83Z"/><path class="cls-7" d="M442.67,177.11c-1.09,1-3.39,2.78-4.58,3.78-1,.81-1,1.07.05,1.93,1.46,1.19,4.29,3.48,6,5.17L443,189.05c-.33-.38-.7-.78-1.1-1.17-1.12-1.15-3.56-3.23-5-4.46s-1.33-2,.11-3.17c1.2-1,3.63-2.93,4.72-4a7.64,7.64,0,0,0,.91-1.07l1.19,1.06Z"/><path class="cls-7" d="M450.56,177.16c-.08,1.81-.19,5.58-.19,8,0,1.76,1.1,2.38,2.62,2.38a6.67,6.67,0,0,0,5.73-3.31l.92,1.09a8.06,8.06,0,0,1-6.7,3.54c-2.3,0-3.89-1-3.89-3.57,0-2.37.16-6.42.16-8.1a9.07,9.07,0,0,0-.12-1.64l1.61,0A14.75,14.75,0,0,0,450.56,177.16Z"/><path class="cls-7" d="M469.46,176.37c0,.21,0,.56,0,1a42.5,42.5,0,0,0,4.34-.43l0,1.17c-1.26.14-2.78.28-4.32.36v2.24a37.83,37.83,0,0,0,4.47-.43l0,1.2c-1.5.19-2.91.32-4.43.37,0,.83.08,1.7.11,2.47a12.63,12.63,0,0,1,4.67,2.49l-.73,1.14a11.87,11.87,0,0,0-3.88-2.42c0,.4,0,.74,0,1,0,1.11-.73,2.25-2.81,2.25-2.31,0-3.56-.82-3.56-2.36s1.4-2.45,3.7-2.45a10,10,0,0,1,1.35.1c0-.72,0-1.49-.07-2.18h-.91c-1.09,0-2.85-.09-4-.22l0-1.2a29.92,29.92,0,0,0,4,.3h.87V178.5h-.71c-1.11,0-3.08-.16-4.09-.27l0-1.19a28,28,0,0,0,4.1.36h.74v-1.14a9.2,9.2,0,0,0-.07-1h1.36A7,7,0,0,0,469.46,176.37Zm-2.76,11.26c.91,0,1.7-.29,1.7-1.4,0-.27,0-.65,0-1.07a7.15,7.15,0,0,0-1.55-.16c-1.52,0-2.35.59-2.35,1.33S465.12,187.63,466.7,187.63Z"/><path class="cls-7" d="M480.43,177.16c-.08,1.81-.19,5.58-.19,8,0,1.76,1.1,2.38,2.62,2.38a6.67,6.67,0,0,0,5.73-3.31l.92,1.09a8.06,8.06,0,0,1-6.69,3.54c-2.31,0-3.89-1-3.89-3.57,0-2.37.16-6.42.16-8.1a9,9,0,0,0-.13-1.64l1.62,0A14.78,14.78,0,0,0,480.43,177.16Z"/><path class="cls-7" d="M497.07,176.69c-.06.34-.14.75-.24,1.19a23.14,23.14,0,0,0,3.07-.58v1.27a31.08,31.08,0,0,1-3.32.54c-.15.7-.32,1.44-.52,2.14a48.84,48.84,0,0,1-2.49,7.34l-1.41-.49a34.49,34.49,0,0,0,2.69-7.15c.14-.53.29-1.14.41-1.71-.53,0-1,0-1.47,0-.7,0-1.28,0-1.86-.07l0-1.25a13.87,13.87,0,0,0,1.92.12c.52,0,1.1,0,1.72-.08.12-.57.2-1.08.24-1.4a6.16,6.16,0,0,0,.05-1.33l1.54.13C497.26,175.76,497.14,176.37,497.07,176.69Zm1.91,8.93c0,.76.41,1.49,2.7,1.49a15.22,15.22,0,0,0,3.12-.32l0,1.3a21.22,21.22,0,0,1-3.09.22c-2.53,0-3.91-.76-3.91-2.35a9.88,9.88,0,0,1,.24-1.89l1.2.11A5.87,5.87,0,0,0,499,185.62Zm2.81-5.47a27.16,27.16,0,0,1,2.77.14l0,1.22a20.64,20.64,0,0,0-2.69-.19,26.92,26.92,0,0,0-3,.16v-1.19C499.71,180.21,500.77,180.15,501.79,180.15Z"/><path class="cls-7" d="M513.33,176.47c-.1.46-.24,1.41-.42,2.29.75-.07,1.43-.12,1.81-.12,1.42,0,2.59.55,2.59,2.71a15.25,15.25,0,0,1-.92,5.78,2.26,2.26,0,0,1-2.34,1.34,8.56,8.56,0,0,1-1.89-.24L512,186.9a7.75,7.75,0,0,0,2,.33,1.32,1.32,0,0,0,1.39-.82,13.4,13.4,0,0,0,.77-4.9c0-1.47-.69-1.74-1.7-1.74-.38,0-1,0-1.72.11a33.42,33.42,0,0,1-3.37,8.63L508,188a25.82,25.82,0,0,0,3.38-8c-.85.08-1.62.17-2,.22l-1.44.19-.13-1.39a13.45,13.45,0,0,0,1.42,0c.53,0,1.47-.1,2.43-.18a16.45,16.45,0,0,0,.42-3.49l1.49.16C513.46,175.81,513.39,176.16,513.33,176.47ZM522,183l-1.25.59a19.06,19.06,0,0,0-2.85-5.79l1.17-.53A29,29,0,0,1,522,183Z"/><path class="cls-7" d="M531.31,178.93c0-1.1-.8-1.9-2.43-1.9a4.12,4.12,0,0,0-3,1.46l-.86-.81a5.32,5.32,0,0,1,4-1.85c2.26,0,3.7,1.15,3.7,3,0,2.42-3.83,2.91-3.4,5.32H528C527.54,181.48,531.31,180.76,531.31,178.93Zm-3.63,8.1a1,1,0,1,1,1,1.06A1,1,0,0,1,527.68,187Z"/><path class="cls-5" d="M1005.54,81a5,5,0,1,1-4.95,5A4.94,4.94,0,0,1,1005.54,81Z"/><path class="cls-7" d="M1025.79,84a18.25,18.25,0,0,1-2.82,5.41c.59,1.57,1.33,2.48,2.15,2.48.44,0,.64-.83.75-3a2.86,2.86,0,0,0,1,.64c-.22,2.72-.65,3.5-1.87,3.5s-2.19-1-2.93-2.62a14.17,14.17,0,0,1-3.3,2.66,6.78,6.78,0,0,0-.86-1,12.8,12.8,0,0,0,3.68-3,31.35,31.35,0,0,1-1.17-6.74h-5.52v2.08H1019v.51c-.08,3.59-.18,4.93-.51,5.35a1.22,1.22,0,0,1-1,.46,14.86,14.86,0,0,1-1.91,0,2.47,2.47,0,0,0-.33-1.12c.73.07,1.42.08,1.69.08s.39,0,.48-.17.31-1.25.37-4h-2.91v.12c0,2.25-.24,5.46-1.68,7.54a5,5,0,0,0-1-.8c1.31-2,1.45-4.69,1.45-6.75V81.33h6.68c-.07-.88-.08-1.77-.1-2.69h1.23c0,.93,0,1.83.07,2.69h5.17V82.5h-5.09a29.21,29.21,0,0,0,.88,5.56,16.18,16.18,0,0,0,2-4.33ZM1023,78.69a15.36,15.36,0,0,1,2.86,1.83l-.73.81a16.82,16.82,0,0,0-2.84-1.92Z"/><path class="cls-7" d="M1042.8,88.09a26.17,26.17,0,0,1-3.61,2.17,10.78,10.78,0,0,0,4.57,2,3.65,3.65,0,0,0-.74,1,10,10,0,0,1-7.44-6h-2.28v4.23l4.2-.71,0,1.06c-2.55.45-5.29.91-7.19,1.23l-.31-1.09,2-.3V87.3h-2.8V86.23h2.8v-7H1042v1h-8.65v1.33h8.17v1h-8.17v1.32h8.17v1h-8.17v1.36h10.2V87.3h-6.71a8.06,8.06,0,0,0,1.65,2.31,24.66,24.66,0,0,0,3.38-2.16Z"/><path class="cls-7" d="M1053.47,92.51l-.76-1.19a12.37,12.37,0,0,0,1.38-.21,4.83,4.83,0,0,0,4.07-4.75,4.46,4.46,0,0,0-4.28-4.64,31.5,31.5,0,0,1-1,4.61c-1,3.29-2.24,5-3.73,5s-2.85-1.64-2.85-4.28a6.82,6.82,0,0,1,7-6.51,5.8,5.8,0,0,1,6.13,5.89C1059.47,89.77,1057.26,92,1053.47,92.51Zm-4.23-2.68c.75,0,1.6-1.07,2.42-3.77a25.54,25.54,0,0,0,.89-4.33,5.59,5.59,0,0,0-5,5.19C1047.59,88.94,1048.52,89.83,1049.24,89.83Z"/><path class="cls-7" d="M1075.61,88.34a8.89,8.89,0,0,1-1.86,2.58c.45.85,1,1.31,1.59,1.31s.64-.38.72-1.82a2.73,2.73,0,0,0,.82.53c-.2,1.79-.55,2.32-1.6,2.32a2.72,2.72,0,0,1-2.33-1.65,11.66,11.66,0,0,1-2.78,1.6,7.1,7.1,0,0,0-.64-.75,10.36,10.36,0,0,0,3-1.76,15.38,15.38,0,0,1-.81-3h-2.5c0,.32-.07.63-.1.93a16.35,16.35,0,0,1,2.21,1.57l-.67.82a17,17,0,0,0-1.73-1.35,5.71,5.71,0,0,1-2.1,3.52,3.31,3.31,0,0,0-.72-.78c1.46-1,1.89-2.8,2.05-4.71H1067v-.89l-.5.7c-.21-.51-.7-1.49-1.14-2.29v8h-1.07v-7.4a17.58,17.58,0,0,1-1.76,4.36,6.16,6.16,0,0,0-.59-1,18.65,18.65,0,0,0,2.24-6h-1.91V82.07h2V78.61h1.07v3.46h1.73v1.09h-1.73v.72c.42.57,1.51,2.32,1.75,2.77l-.07.09h4.49a57.27,57.27,0,0,1-.52-8.11h1.08a50.62,50.62,0,0,0,.48,8.11h2.17a9.12,9.12,0,0,0-1.34-.93l.56-.57a8,8,0,0,1,1.7,1.15l-.34.35h1.31v1h-3.9a15,15,0,0,0,.57,2.21,7.43,7.43,0,0,0,1.27-2Zm-8.18-3.77c.34-.45.71-1,1.07-1.56a12,12,0,0,0-1.69-1.63l.49-.65.39.28a20.11,20.11,0,0,0,1-2.24l.93.37c-.42.78-.9,1.73-1.3,2.38a7.47,7.47,0,0,1,.69.71c.38-.66.74-1.31,1-1.87l.87.41a40.25,40.25,0,0,1-2.41,3.73l1.57-.09a7,7,0,0,0-.43-1l.74-.27a8.51,8.51,0,0,1,.89,2.31l-.78.33a4.64,4.64,0,0,0-.13-.54c-1.15.09-2.26.21-3.23.3l-.18-.94Zm5.48-.16c.3-.4.64-.88,1-1.41a10.85,10.85,0,0,0-1.68-1.62l.49-.65c.11.09.24.17.37.28a20.36,20.36,0,0,0,1-2.24l.93.37c-.41.8-.92,1.73-1.32,2.37.26.26.51.5.71.72.38-.66.73-1.31,1-1.87l.86.41c-.67,1.14-1.52,2.52-2.29,3.57l1.7-.11a8.58,8.58,0,0,0-.46-.91l.73-.31a8.73,8.73,0,0,1,1,2.31l-.77.37a3.37,3.37,0,0,0-.19-.66c-1.2.13-2.34.21-3.35.3l-.18-.89Z"/><path class="cls-7" d="M1086.7,78.64a17.15,17.15,0,0,0,7,5.48,6.16,6.16,0,0,0-.77,1,19.53,19.53,0,0,1-6.76-5.39,18.33,18.33,0,0,1-6.61,5.46,3.76,3.76,0,0,0-.69-.95,16.71,16.71,0,0,0,6.63-5.65Zm-7,8h13.15v1.1h-7.5c-.56,1.19-1.25,2.56-1.89,3.69,2-.07,4.24-.15,6.48-.25a27,27,0,0,0-2.11-2.16l1-.54a21.23,21.23,0,0,1,3.76,4.18l-1.08.65a10.83,10.83,0,0,0-.73-1.07c-3.92.19-8.07.37-10.81.47l-.16-1.17c.69,0,1.49,0,2.36-.07a30.72,30.72,0,0,0,1.73-3.73h-4.21Zm10.29-3v1.09h-7.57V83.56Z"/><path class="cls-7" d="M1101.62,84.31c1.51-.91,3.24-1.76,4.12-2.24a9.39,9.39,0,0,0,1.14-.75l.7,1.13c-.37.23-.77.44-1.23.68a52.94,52.94,0,0,0-4.87,2.65c-1.49,1-2.38,2-2.38,3.24s1.26,2.16,3.79,2.16a23.82,23.82,0,0,0,5.12-.55v1.43a31.26,31.26,0,0,1-5.06.4c-3,0-5.18-.9-5.18-3.3,0-1.65,1-2.94,2.77-4.15a50.28,50.28,0,0,1-2.32-4.93l1.26-.52A34.7,34.7,0,0,0,1101.62,84.31Z"/><path class="cls-7" d="M1113.72,87.3v4.5c0,.66-.14,1-.54,1.19a4.62,4.62,0,0,1-2,.22,4.57,4.57,0,0,0-.34-1.14c.67,0,1.31,0,1.49,0s.27-.07.27-.29V87.66c-.67.22-1.3.43-1.87.6l-.31-1.15c.61-.18,1.36-.38,2.18-.64V82.93h-2v-1.1h2v-3.2h1.12v3.2h1.89v1.1h-1.89v3.19l1.78-.56.16,1.1Zm7.22,4.53a9.13,9.13,0,0,0,1.52.11c.38,0,2.38,0,2.93,0a3.59,3.59,0,0,0-.35,1h-2.63c-2.29,0-4-.47-5.09-2.82a7.25,7.25,0,0,1-1.94,3.12,4.09,4.09,0,0,0-.86-.78c1.55-1.28,2.16-3.4,2.35-6.13l1.14.08a20.55,20.55,0,0,1-.35,2.43,4.2,4.2,0,0,0,2.14,2.67V84.58h-3.17V79.4h7.49v5.18h-3.18v2.47h3.74v1.07h-3.74Zm-3.19-8.27H1123V80.42h-5.22Z"/><path class="cls-7" d="M1136.92,84.68c-.61.56-2.41,2.24-3,2.85a2.71,2.71,0,0,1,.63,0,1.45,1.45,0,0,1,1.21,1.15c.15.47.37,1.27.53,1.79s.58.87,1.4.87a13.91,13.91,0,0,0,3-.32l-.08,1.34a22.4,22.4,0,0,1-3,.24c-1.28,0-2.08-.3-2.42-1.36-.16-.48-.4-1.42-.54-1.89a1,1,0,0,0-1-.84,1.72,1.72,0,0,0-1.18.57,45.51,45.51,0,0,0-3.25,3.57l-1.22-.85c.2-.17.48-.41.8-.72l6.58-6.59c-1.26.08-4,.3-4.93.38-.53,0-.94.1-1.29.16l-.12-1.41a11.35,11.35,0,0,0,1.36,0c.92,0,4.65-.28,5.85-.42a2.93,2.93,0,0,0,.76-.18l.77.87A9.24,9.24,0,0,0,1136.92,84.68Zm.56-4.45-.17,1.18c-1.6-.14-4.4-.51-6.36-.86l.21-1.17A54.91,54.91,0,0,0,1137.48,80.23Z"/><path class="cls-7" d="M1016.49,114.44a20.23,20.23,0,0,1-1.76,2.41v8.42h-1.18v-7.1a19.25,19.25,0,0,1-1.81,1.66,12.28,12.28,0,0,0-.84-1,17.55,17.55,0,0,0,4.49-4.82Zm-.62-3.38a19.78,19.78,0,0,1-4.1,4,9.64,9.64,0,0,0-.71-.94,15.91,15.91,0,0,0,3.67-3.48Zm9.81,6h-2.42v6.62c0,.73-.17,1.1-.7,1.29a11.86,11.86,0,0,1-3,.18,4.29,4.29,0,0,0-.39-1.16c1.14,0,2.2,0,2.5,0s.4-.08.4-.35v-6.6h-5.35V116h9Zm-.47-4.38h-7.81v-1.12h7.81Z"/><path class="cls-7" d="M1042.21,114.33s0,.44,0,.6c-.18,6.71-.32,8.93-.86,9.61a1.3,1.3,0,0,1-1.08.59,11.18,11.18,0,0,1-1.93,0A3.29,3.29,0,0,0,1038,124c.77.06,1.47.08,1.78.08a.6.6,0,0,0,.57-.26c.37-.46.56-2.57.72-8.38h-2.29c-.19,4.25-.92,7.74-3.74,9.86a4,4,0,0,0-.88-.85,8,8,0,0,0,.69-.56c-2.42.28-4.9.56-6.69.75l-.18-1,3.47-.32v-1.38h-3V121h3v-1h-3v-4.75h3v-1H1028v-.93h3.45v-1c-1,.08-2.06.14-3,.17a4.12,4.12,0,0,0-.29-.88,50.11,50.11,0,0,0,6.9-.78l.59.91a29.22,29.22,0,0,1-3.12.46v1.17h3.39v.93h-3.39v1h3.1V120h-3.1v1h3.13v.91h-3.13v1.27c1-.1,2.13-.21,3.2-.34v.06c1.37-1.88,1.81-4.46,2-7.45h-1.87v-1.12h1.9c0-1.13,0-2.29,0-3.51h1.12c0,1.2,0,2.38,0,3.51Zm-12.79,2.91h2v-1.15h-2Zm2,2V118h-2v1.17Zm1.08-3.1v1.15h2.09v-1.15Zm2.09,1.93h-2.09v1.17h2.09Z"/><path class="cls-7" d="M1048.09,113.16c-.08,1.81-.19,5.58-.19,8,0,1.76,1.1,2.38,2.62,2.38a6.67,6.67,0,0,0,5.73-3.31l.92,1.09a8.06,8.06,0,0,1-6.7,3.54c-2.3,0-3.88-1-3.88-3.57,0-2.37.16-6.42.16-8.1a9,9,0,0,0-.13-1.64l1.61,0A14.75,14.75,0,0,0,1048.09,113.16Z"/><path class="cls-7" d="M1067,112.37c0,.21,0,.56,0,1a42.5,42.5,0,0,0,4.34-.43l0,1.17c-1.26.14-2.78.28-4.32.36v2.24a37.83,37.83,0,0,0,4.47-.43l0,1.2c-1.5.19-2.91.32-4.43.37,0,.83.08,1.7.11,2.47a12.63,12.63,0,0,1,4.67,2.49l-.73,1.14a11.87,11.87,0,0,0-3.88-2.42c0,.4,0,.74,0,1,0,1.11-.74,2.25-2.82,2.25-2.31,0-3.55-.82-3.55-2.36s1.39-2.45,3.69-2.45a9.85,9.85,0,0,1,1.35.1c0-.72,0-1.49-.07-2.18h-.91c-1.09,0-2.85-.09-4-.22l0-1.2a30.07,30.07,0,0,0,4,.3h.86V114.5h-.7c-1.12,0-3.09-.16-4.1-.27l0-1.19a28,28,0,0,0,4.1.36h.74v-1.14a7.09,7.09,0,0,0-.07-1h1.36A8.6,8.6,0,0,0,1067,112.37Zm-2.76,11.26c.92,0,1.7-.29,1.7-1.4,0-.27,0-.65,0-1.07a7.31,7.31,0,0,0-1.56-.16c-1.52,0-2.35.59-2.35,1.33S1062.65,123.63,1064.23,123.63Z"/><path class="cls-7" d="M1078,113.16c-.08,1.81-.19,5.58-.19,8,0,1.76,1.1,2.38,2.62,2.38a6.7,6.7,0,0,0,5.74-3.31l.91,1.09a8.06,8.06,0,0,1-6.69,3.54c-2.31,0-3.89-1-3.89-3.57,0-2.37.16-6.42.16-8.1a8.2,8.2,0,0,0-.13-1.64l1.62,0A14.78,14.78,0,0,0,1078,113.16Z"/><path class="cls-7" d="M1094.6,112.69c-.06.34-.14.75-.24,1.19a23.6,23.6,0,0,0,3.08-.58v1.27a31.27,31.27,0,0,1-3.33.54c-.15.7-.32,1.44-.52,2.14a48.84,48.84,0,0,1-2.49,7.34l-1.41-.49a34.49,34.49,0,0,0,2.69-7.15c.14-.53.29-1.14.42-1.71-.53,0-1,.05-1.48.05-.7,0-1.28,0-1.85-.07l0-1.25a14,14,0,0,0,1.92.12c.53,0,1.1,0,1.73-.08.11-.57.19-1.08.24-1.4a6.1,6.1,0,0,0,0-1.33l1.54.13C1094.8,111.76,1094.67,112.37,1094.6,112.69Zm1.91,8.93c0,.76.41,1.49,2.7,1.49a15.22,15.22,0,0,0,3.12-.32l0,1.3a21.11,21.11,0,0,1-3.09.22c-2.53,0-3.91-.76-3.91-2.35a9.88,9.88,0,0,1,.24-1.89l1.2.11A5.87,5.87,0,0,0,1096.51,121.62Zm2.82-5.47a27.11,27.11,0,0,1,2.76.14l0,1.22a20.51,20.51,0,0,0-2.69-.19,26.74,26.74,0,0,0-3,.16v-1.19C1097.24,116.21,1098.3,116.15,1099.33,116.15Z"/><path class="cls-7" d="M1110.86,112.47c-.1.46-.24,1.41-.42,2.29.76-.07,1.43-.12,1.81-.12,1.43,0,2.59.55,2.59,2.71a15.25,15.25,0,0,1-.92,5.78,2.26,2.26,0,0,1-2.34,1.34,8.56,8.56,0,0,1-1.89-.24l-.21-1.33a7.75,7.75,0,0,0,2,.33,1.32,1.32,0,0,0,1.39-.82,13.4,13.4,0,0,0,.77-4.9c0-1.47-.69-1.74-1.69-1.74-.39,0-1,0-1.73.11a33.36,33.36,0,0,1-3.36,8.63l-1.32-.52a25.35,25.35,0,0,0,3.38-8c-.85.08-1.62.17-2,.22l-1.44.19-.13-1.39a13.45,13.45,0,0,0,1.42,0c.53,0,1.48-.1,2.44-.18a17.1,17.1,0,0,0,.41-3.49l1.49.16Zm8.63,6.48-1.25.59a18.84,18.84,0,0,0-2.85-5.79l1.17-.53A29,29,0,0,1,1119.49,119Z"/><path class="cls-7" d="M1128.84,114.93c0-1.1-.8-1.9-2.43-1.9a4.09,4.09,0,0,0-3,1.46l-.87-.81a5.32,5.32,0,0,1,4-1.85c2.26,0,3.7,1.15,3.7,3,0,2.42-3.83,2.91-3.39,5.32h-1.32C1125.07,117.48,1128.84,116.76,1128.84,114.93Zm-3.63,8.1a1,1,0,1,1,2.07,0,1,1,0,1,1-2.07,0Z"/><path class="cls-5" d="M1005.54,145a5,5,0,1,1-4.95,5A4.94,4.94,0,0,1,1005.54,145Z"/><path class="cls-7" d="M1017.72,144.32c0,.39-.05,1-.06,1.73a21.1,21.1,0,0,0,3.29-.64l0,1.25a28.85,28.85,0,0,1-3.37.56c0,.75,0,1.52,0,2.16v.56a12.29,12.29,0,0,1,3.52-.59c2.34,0,4,1.26,4,3.19s-1.21,3.17-3.41,3.69a11.94,11.94,0,0,1-2,.23l-.45-1.3a7.84,7.84,0,0,0,1.87-.11c1.41-.27,2.69-1,2.69-2.5s-1.23-2.1-2.75-2.1a10.49,10.49,0,0,0-3.49.63c0,1.36.06,2.78.06,3.47,0,1.49-.54,2-1.41,2-1.24,0-3.33-1.23-3.33-2.66s1.67-2.72,3.51-3.5v-.91c0-.64,0-1.4,0-2.1-.45,0-.85.05-1.19.05a18.65,18.65,0,0,1-2-.08l0-1.22a15.22,15.22,0,0,0,2,.13c.37,0,.78,0,1.23,0,0-.83,0-1.54,0-1.82a8.16,8.16,0,0,0-.08-1.14h1.42A11,11,0,0,0,1017.72,144.32Zm-1.79,10.84c.37,0,.59-.26.59-.78s0-1.67,0-2.84c-1.31.61-2.29,1.54-2.29,2.26S1015.3,155.16,1015.93,155.16Zm10.53-7.83-.66,1a20.15,20.15,0,0,0-3.58-2.4l.57-1A27.76,27.76,0,0,1,1026.46,147.33Z"/><path class="cls-7" d="M1040,147.06a11.16,11.16,0,0,1-3.15,3.08,21.51,21.51,0,0,0,6.21,1.68,4.73,4.73,0,0,0-.75,1.13,21.16,21.16,0,0,1-2.16-.43v4.67H1039v-.51h-6.47v.53h-1.14v-4.53c-.81.26-1.63.46-2.43.64a4.15,4.15,0,0,0-.59-1,22.6,22.6,0,0,0,6.32-2.1,10.58,10.58,0,0,1-2.16-1.87,13.51,13.51,0,0,1-2.5,1.57,3.58,3.58,0,0,0-.8-.85,10.59,10.59,0,0,0,4.55-3.6l1.28.24a10.9,10.9,0,0,1-.74.94H1039l.21,0Zm-9.87,0H1029v-3h6.07v-1.42h1.2v1.42h6.13v3h-1.19v-1.89h-11.07Zm9.36,5.29a18,18,0,0,1-3.76-1.5,21.61,21.61,0,0,1-3.36,1.5Zm-.54,3.32v-2.32h-6.47v2.32Zm-5.64-8a9.08,9.08,0,0,0,2.44,1.94,10.64,10.64,0,0,0,2.43-2h-4.82Z"/><path class="cls-7" d="M1050,151.9c-.23-.52-.79-1.51-1.27-2.31v7.62h-1.08v-7.48a16.6,16.6,0,0,1-2,4.47,6.25,6.25,0,0,0-.61-1,17.37,17.37,0,0,0,2.44-6h-2.12v-1.1h2.25v-3.46h1.08v3.46h1.83v1.1h-1.83v1c.45.59,1.65,2.4,1.92,2.84Zm4.21,2.3c-1.28.75-2.64,1.54-3.73,2.15l-.56-1c1-.51,2.51-1.33,4-2.13Zm2.67-1.28a7,7,0,0,0,3.17,2.67,5.59,5.59,0,0,0-.77,1,8.37,8.37,0,0,1-3.55-3.74v3.09c0,.64-.13,1-.55,1.15a6,6,0,0,1-2.12.21,3.94,3.94,0,0,0-.34-1.09c.7,0,1.39,0,1.6,0s.26-.07.26-.27v-6h-4v-1h4v-1.23h-3.24v-.93h3.24V145.6h-3.7v-1h2a11.86,11.86,0,0,0-.8-1.65l.93-.3a8.59,8.59,0,0,1,1,1.84l-.29.11h2.78l-.14,0a14.22,14.22,0,0,0,.93-2l1.17.33c-.34.59-.69,1.22-1,1.7h2.11v1h-3.81v1.14h3.46v.93h-3.46v1.23h4v1h-4v.64a9.63,9.63,0,0,0,1,2.08,16.44,16.44,0,0,0,2-2.14l.91.64a21.19,21.19,0,0,1-2.18,2.17Zm-5-2.37a11.47,11.47,0,0,1,1.65,2.07l-.87.6a11.52,11.52,0,0,0-1.6-2.14Z"/><path class="cls-7" d="M1068,145.2a39.71,39.71,0,0,0,4.88-.49v1.18a44.68,44.68,0,0,1-5.32.45,12.45,12.45,0,0,1-1.44,2.48,4.65,4.65,0,0,1,2.23-.59,2.05,2.05,0,0,1,2.14,1.44c1.09-.53,2.07-.91,2.9-1.3a14.3,14.3,0,0,0,1.31-.62l.53,1.2a14.3,14.3,0,0,0-1.42.51c-.9.34-2,.8-3.25,1.38,0,.93,0,2.29,0,3.07h-1.23c0-.61,0-1.65,0-2.49-1.49.78-2.53,1.63-2.53,2.68,0,1.25,1.25,1.45,2.9,1.45a28.55,28.55,0,0,0,4.37-.39l0,1.28a37.77,37.77,0,0,1-4.39.29c-2.29,0-4.13-.5-4.13-2.45s1.91-3.07,3.78-4.05a1.34,1.34,0,0,0-1.46-1,4.17,4.17,0,0,0-2.75,1.17,20.63,20.63,0,0,0-1.46,1.66l-1.09-.8a16.8,16.8,0,0,0,3.7-4.9h-.7c-.69,0-1.75,0-2.63-.09v-1.2a23.88,23.88,0,0,0,2.71.17h1a7.87,7.87,0,0,0,.4-2l1.32.11A17.32,17.32,0,0,1,1068,145.2Z"/><path class="cls-7" d="M1082.15,148.5c0,.16,0,.35,0,.55h3v1.13h-3.08a10.43,10.43,0,0,1-.16,1.08c.75.75,2.69,2.91,3.19,3.47l-.8,1c-.55-.79-1.8-2.29-2.66-3.27a8.69,8.69,0,0,1-3.31,4.72,4.11,4.11,0,0,0-.84-.88,8,8,0,0,0,3.4-6.13h-3.22v-1.13h3.3v-3.19h-1.22a11.77,11.77,0,0,1-1.29,2.51,7.08,7.08,0,0,0-1-.68,12.87,12.87,0,0,0,2-5.08l1.16.23a17.94,17.94,0,0,1-.5,1.92h4.56v1.1h-2.53Zm9.22-4.5v12.62h-1.18v-1.11h-3.38v1.27h-1.15V144Zm-1.18,10.39v-9.27h-3.38v9.27Z"/><path class="cls-7" d="M1097.4,147.83c.66-1.63,2.32-3.63,4.35-3.63s3.65,2.13,3.65,5.49c0,4.45-2.78,6.4-6.75,7.12l-.75-1.15c3.47-.52,6.19-1.94,6.19-6,0-2.53-.86-4.35-2.54-4.35-2,0-3.86,2.91-4,5a7.3,7.3,0,0,0,0,2l-1.23.09a19.19,19.19,0,0,1-.18-2.54,40.84,40.84,0,0,1,.5-5.17c.06-.48.09-1,.12-1.38l1.41,0A31.1,31.1,0,0,0,1097.4,147.83Z"/><path class="cls-7" d="M1109.19,149.88a3.44,3.44,0,0,0-.74-1,16.68,16.68,0,0,0,6.61-6.31h1.24a17.08,17.08,0,0,0,6.94,6.1,4.67,4.67,0,0,0-.78,1.06,19.2,19.2,0,0,1-6.71-6A18.11,18.11,0,0,1,1109.19,149.88Zm4.35-1.6v2.22c0,2.26-.35,4.87-3.53,6.74a4.91,4.91,0,0,0-1-.85,5.94,5.94,0,0,0,3.27-5.9v-2.21Zm5.69-.07v9H1118v-9Z"/><path class="cls-7" d="M1139.58,145.09v1.14h-8.72a20.92,20.92,0,0,1-1.94,3.26v7.67h-1.17V150.9a11.5,11.5,0,0,1-1.86,1.62,4.84,4.84,0,0,0-.6-1.07,13.81,13.81,0,0,0,4.22-5.22h-3.84v-1.14H1130a21.37,21.37,0,0,0,.85-2.48l1.21.31c-.2.72-.48,1.45-.76,2.17Zm-4.23,10.65h4.23v1.12H1130v-1.12h4.21v-4.5h-3.59v-1.12h3.59v-3.06h1.18v3.06H1139v1.12h-3.61Z"/><path class="cls-7" d="M1146.6,143a24.79,24.79,0,0,1-1.54,3.31v10.9h-1.13v-9.06a17.07,17.07,0,0,1-1.49,1.86,8.83,8.83,0,0,0-.66-1.12,17.8,17.8,0,0,0,3.73-6.23Zm6.93,2.3v2.61h2.91v9h-1.15v-.94h-7.54v1h-1.09v-9.06h2.79V145.3h-3v-1.07h10.11v1.07Zm-5.78,9.57h1.78V149h-1.78Zm4.64-9.57h-1.82v2.61h1.82Zm-1.82,3.68v5.89h1.82V149Zm4.72,0h-1.86v5.89h1.86Z"/><path class="cls-7" d="M1163.59,143a23.82,23.82,0,0,1-1.65,3.46v10.72h-1.12v-9a14.76,14.76,0,0,1-1.61,2,6.54,6.54,0,0,0-.68-1.15,18.27,18.27,0,0,0,4-6.35Zm9.93,13.42h-8.74v.78h-1.11v-9.76h1.11v7.94h8.74Zm-5.54-9.79c.06-.39.11-.86.16-1.34h-4.28v-1h4.37c0-.58.1-1.14.13-1.63l1.19.06c0,.5-.1,1-.15,1.57h4v1h-4.15c0,.48-.11.95-.17,1.34h3.44v7.5h-6.36v-7.5Zm3.41.92h-4.08v1.29h4.08Zm0,2.16h-4.08V151h4.08Zm0,2.18h-4.08v1.32h4.08Z"/><path class="cls-7" d="M1017.15,177.2a39.91,39.91,0,0,0,4.88-.49l0,1.18a44.51,44.51,0,0,1-5.31.45,13,13,0,0,1-1.44,2.48,4.64,4.64,0,0,1,2.22-.59,2.07,2.07,0,0,1,2.15,1.44c1.09-.53,2.06-.91,2.89-1.3a13.33,13.33,0,0,0,1.32-.62l.53,1.2a14.46,14.46,0,0,0-1.43.51c-.89.34-2,.8-3.25,1.38,0,.93,0,2.29,0,3.07h-1.23c0-.61,0-1.65,0-2.49-1.48.78-2.52,1.63-2.52,2.68,0,1.25,1.24,1.45,2.89,1.45a28.44,28.44,0,0,0,4.37-.39l0,1.28a37.44,37.44,0,0,1-4.38.29c-2.29,0-4.13-.5-4.13-2.45s1.9-3.07,3.77-4.05a1.33,1.33,0,0,0-1.45-1,4.19,4.19,0,0,0-2.76,1.17,20.7,20.7,0,0,0-1.45,1.66l-1.09-.8a16.8,16.8,0,0,0,3.7-4.9h-.71c-.69,0-1.74,0-2.62-.09v-1.2a23.85,23.85,0,0,0,2.7.17h1.06a8.33,8.33,0,0,0,.4-2l1.31.11A16.91,16.91,0,0,1,1017.15,177.2Z"/><path class="cls-7" d="M1036.54,181.38v2.39h3.79v1.1h-3.79v2.58c0,.49.1.59.64.59H1039c.49,0,.57-.32.64-2a3.16,3.16,0,0,0,1.07.49c-.11,2-.45,2.6-1.62,2.6H1037c-1.35,0-1.7-.35-1.7-1.67v-2.56h-2.88c-.26,1.71-1.2,3.35-4.34,4.44a4.48,4.48,0,0,0-.75-.95c2.67-.89,3.58-2.16,3.87-3.49h-3.55v-1.1h3.68v-2.39h-1.68v-.61a13.12,13.12,0,0,1-2.39,1.41,6.76,6.76,0,0,0-.73-.89,11.32,11.32,0,0,0,3.25-2.08,17.13,17.13,0,0,0-1.92-1.69l.73-.62a21.33,21.33,0,0,1,1.94,1.57,11.69,11.69,0,0,0,1.49-2.11h-4V175.3h4.56l.21-.05.78.39a11.15,11.15,0,0,1-3.33,4.64h7.52a13.82,13.82,0,0,1-3.56-5.3l1-.3a11.81,11.81,0,0,0,1,2,21.28,21.28,0,0,0,2-1.9l.89.64a20,20,0,0,1-2.35,2,12.41,12.41,0,0,0,1,1.24,19.73,19.73,0,0,0,2.29-2.07l.9.64a24.73,24.73,0,0,1-2.52,2.07,10.49,10.49,0,0,0,3,1.85,5,5,0,0,0-.82,1,10.57,10.57,0,0,1-2.29-1.4v.61Zm-1.23,0h-2.79v2.39h2.79Z"/><path class="cls-7" d="M1056.22,188c.64,0,.77-.29.83-2.26a3.25,3.25,0,0,0,1.11.48c-.15,2.32-.5,2.9-1.84,2.9h-2.58c-1.5,0-1.9-.35-1.9-1.65v-3.2h-2.63c-.38,2.56-1.41,4.16-5,5a3.42,3.42,0,0,0-.67-1c3.28-.65,4.13-1.9,4.46-3.95h-2.16v-9.08h10.07v9.08H1053v3.18c0,.47.12.55.81.55Zm-9.27-10.1h7.72v-1.64H1047Zm0,2.64h7.72v-1.65H1047Zm0,2.67h7.72v-1.66H1047Z"/><path class="cls-7" d="M1063.66,177.16c-.08,1.81-.19,5.58-.19,8,0,1.76,1.1,2.38,2.62,2.38a6.67,6.67,0,0,0,5.73-3.31l.91,1.09a8,8,0,0,1-6.69,3.54c-2.3,0-3.89-1-3.89-3.57,0-2.37.16-6.42.16-8.1a9.07,9.07,0,0,0-.12-1.64l1.61,0A12.65,12.65,0,0,0,1063.66,177.16Z"/><path class="cls-7" d="M1082.55,176.37c0,.21,0,.56,0,1a42.5,42.5,0,0,0,4.34-.43l0,1.17c-1.26.14-2.78.28-4.32.36v2.24a37.83,37.83,0,0,0,4.47-.43l0,1.2c-1.51.19-2.91.32-4.44.37,0,.83.09,1.7.12,2.47a12.63,12.63,0,0,1,4.67,2.49l-.74,1.14a11.72,11.72,0,0,0-3.87-2.42c0,.4,0,.74,0,1,0,1.11-.73,2.25-2.81,2.25-2.31,0-3.56-.82-3.56-2.36s1.4-2.45,3.7-2.45a9.71,9.71,0,0,1,1.34.1c0-.72,0-1.49-.06-2.18h-.91c-1.09,0-2.85-.09-4-.22l0-1.2a29.92,29.92,0,0,0,4,.3h.87V178.5h-.71c-1.12,0-3.08-.16-4.09-.27l0-1.19a28,28,0,0,0,4.1.36h.73v-1.14a9.32,9.32,0,0,0-.06-1h1.36A8.32,8.32,0,0,0,1082.55,176.37Zm-2.75,11.26c.91,0,1.7-.29,1.7-1.4,0-.27,0-.65,0-1.07a7.15,7.15,0,0,0-1.55-.16c-1.52,0-2.35.59-2.35,1.33S1078.22,187.63,1079.8,187.63Z"/><path class="cls-7" d="M1093.53,177.16c-.08,1.81-.19,5.58-.19,8,0,1.76,1.1,2.38,2.62,2.38a6.67,6.67,0,0,0,5.73-3.31l.92,1.09a8.06,8.06,0,0,1-6.69,3.54c-2.31,0-3.89-1-3.89-3.57,0-2.37.16-6.42.16-8.1a9,9,0,0,0-.13-1.64l1.62,0A12.67,12.67,0,0,0,1093.53,177.16Z"/><path class="cls-7" d="M1110.17,176.69c-.06.34-.14.75-.24,1.19a23.14,23.14,0,0,0,3.07-.58v1.27a31.08,31.08,0,0,1-3.32.54c-.15.7-.33,1.44-.52,2.14a48.84,48.84,0,0,1-2.49,7.34l-1.41-.49A35.07,35.07,0,0,0,1108,181c.14-.53.28-1.14.41-1.71-.53,0-1,0-1.47,0-.7,0-1.28,0-1.86-.07l0-1.25a14.1,14.1,0,0,0,1.93.12c.52,0,1.1,0,1.72-.08.12-.57.2-1.08.24-1.4a6.16,6.16,0,0,0,.05-1.33l1.54.13C1110.36,175.76,1110.23,176.37,1110.17,176.69Zm1.91,8.93c0,.76.41,1.49,2.7,1.49a15.22,15.22,0,0,0,3.12-.32l-.05,1.3a21,21,0,0,1-3.09.22c-2.52,0-3.9-.76-3.9-2.35a9.88,9.88,0,0,1,.24-1.89l1.2.11A5.87,5.87,0,0,0,1112.08,185.62Zm2.81-5.47a27.16,27.16,0,0,1,2.77.14l0,1.22a20.64,20.64,0,0,0-2.69-.19,26.92,26.92,0,0,0-3,.16v-1.19C1112.81,180.21,1113.87,180.15,1114.89,180.15Z"/><path class="cls-7" d="M1126.43,176.47c-.1.46-.24,1.41-.42,2.29.75-.07,1.43-.12,1.81-.12,1.42,0,2.59.55,2.59,2.71a15.05,15.05,0,0,1-.93,5.78,2.24,2.24,0,0,1-2.33,1.34,8.56,8.56,0,0,1-1.89-.24l-.21-1.33a7.75,7.75,0,0,0,2,.33,1.32,1.32,0,0,0,1.39-.82,13.62,13.62,0,0,0,.77-4.9c0-1.47-.69-1.74-1.7-1.74-.38,0-1,0-1.72.11a33.42,33.42,0,0,1-3.37,8.63l-1.31-.52a25.82,25.82,0,0,0,3.38-8c-.85.08-1.62.17-2,.22l-1.45.19-.12-1.39a13.45,13.45,0,0,0,1.42,0c.53,0,1.47-.1,2.43-.18a16.45,16.45,0,0,0,.42-3.49l1.49.16C1126.55,175.81,1126.49,176.16,1126.43,176.47Zm8.62,6.48-1.24.59a19.06,19.06,0,0,0-2.85-5.79l1.17-.53A28.39,28.39,0,0,1,1135.05,183Z"/><path class="cls-7" d="M1144.41,178.93c0-1.1-.8-1.9-2.43-1.9a4.12,4.12,0,0,0-3,1.46l-.86-.81a5.32,5.32,0,0,1,4.05-1.85c2.26,0,3.7,1.15,3.7,3,0,2.42-3.83,2.91-3.4,5.32h-1.31C1140.64,181.48,1144.41,180.76,1144.41,178.93Zm-3.63,8.1a1,1,0,1,1,2.06,0,1,1,0,1,1-2.06,0Z"/></g></g></svg>